<svg width="36" height="36" viewBox="0 0 36 36" fill="none" xmlns="http://www.w3.org/2000/svg">
<path d="M10.202 13.7H12.5422V12.7H10.202V13.7ZM24.2435 13.7H26.5838V12.7H24.2435V13.7ZM25.0101 21.3048C21.6994 25.8317 15.0863 25.8317 11.7757 21.3048L10.9685 21.8951C14.6787 26.9682 22.1071 26.9682 25.8173 21.8951L25.0101 21.3048ZM2.51105 12V5.99995H1.51105V12H2.51105ZM6.69157 1.69995H12.5422V0.699951H6.69157V1.69995ZM2.51105 5.99995C2.51105 3.61317 4.39454 1.69995 6.69157 1.69995V0.699951C3.81864 0.699951 1.51105 3.0848 1.51105 5.99995H2.51105ZM1.51105 23.9999V29.9999H2.51105V23.9999H1.51105ZM6.69157 35.2999H12.5422V34.2999H6.69157V35.2999ZM1.51105 29.9999C1.51105 32.9151 3.81864 35.2999 6.69157 35.2999V34.2999C4.39454 34.2999 2.51105 32.3867 2.51105 29.9999H1.51105ZM24.2435 1.69995H30.0942V0.699951H24.2435V1.69995ZM34.2747 5.99995V12H35.2747V5.99995H34.2747ZM30.0942 1.69995C32.3912 1.69995 34.2747 3.61317 34.2747 5.99995H35.2747C35.2747 3.0848 32.9671 0.699951 30.0942 0.699951V1.69995ZM24.2435 35.2999H30.0942V34.2999H24.2435V35.2999ZM35.2747 29.9999V23.9999H34.2747V29.9999H35.2747ZM30.0942 35.2999C32.9671 35.2999 35.2747 32.9151 35.2747 29.9999H34.2747C34.2747 32.3867 32.3912 34.2999 30.0942 34.2999V35.2999Z" fill="black"/>
</svg>
