<svg width="36" height="36" viewBox="0 0 36 36" fill="none" xmlns="http://www.w3.org/2000/svg">
<path d="M11.0451 13.2V12.7C10.7689 12.7 10.5451 12.9238 10.5451 13.2H11.0451ZM11.0451 15.6L11.4031 15.949L11.5451 15.8034V15.6H11.0451ZM7.04999 16.3029L6.69201 16.652L6.69201 16.652L7.04999 16.3029ZM15.7256 31.1999H16.2256V30.9965L16.0836 30.8509L15.7256 31.1999ZM13.3853 28.7999H12.8853V29.0034L13.0274 29.149L13.3853 28.7999ZM13.3853 25.1999H13.8853V24.9965L13.7433 24.8509L13.3853 25.1999ZM11.0451 22.7999H10.5451V23.0034L10.6871 23.149L11.0451 22.7999ZM11.0451 20.4V19.9C10.7689 19.9 10.5451 20.1238 10.5451 20.4H11.0451ZM22.2464 1.19995V5.99995H23.2464V1.19995H22.2464ZM20.4061 7.89995H18.0659V8.89995H20.4061V7.89995ZM13.3853 12.7H11.0451V13.7H13.3853V12.7ZM10.5451 13.2V15.6H11.5451V13.2H10.5451ZM10.6871 15.2509L10.0016 15.9538L10.7176 16.652L11.4031 15.949L10.6871 15.2509ZM7.40797 15.9538L3.21213 11.6509L2.49617 12.349L6.69201 16.652L7.40797 15.9538ZM15.2256 10.8C15.2256 11.8612 14.3899 12.7 13.3853 12.7V13.7C14.9658 13.7 16.2256 12.3896 16.2256 10.8H15.2256ZM18.0659 7.89995C16.4854 7.89995 15.2256 9.21028 15.2256 10.8H16.2256C16.2256 9.73865 17.0613 8.89995 18.0659 8.89995V7.89995ZM10.0016 15.9538C9.28395 16.6898 8.12567 16.6898 7.40797 15.9538L6.69201 16.652C7.80217 17.7905 9.60745 17.7905 10.7176 16.652L10.0016 15.9538ZM22.2464 5.99995C22.2464 7.06125 21.4107 7.89995 20.4061 7.89995V8.89995C21.9866 8.89995 23.2464 7.58962 23.2464 5.99995H22.2464ZM16.2256 34.7999V31.1999H15.2256V34.7999H16.2256ZM16.0836 30.8509L13.7433 28.4509L13.0274 29.149L15.3676 31.549L16.0836 30.8509ZM13.8853 28.7999V25.1999H12.8853V28.7999H13.8853ZM13.7433 24.8509L11.4031 22.4509L10.6871 23.149L13.0274 25.549L13.7433 24.8509ZM11.5451 22.7999V20.4H10.5451V22.7999H11.5451ZM11.0451 20.9H20.4061V19.9H11.0451V20.9ZM22.2464 22.7999V24.4H23.2464V22.7999H22.2464ZM25.8667 28.0999H32.1074V27.0999H25.8667V28.0999ZM24.5867 26.7999C24.5867 27.506 25.148 28.0999 25.8667 28.0999V27.0999C25.7239 27.0999 25.5867 26.9776 25.5867 26.7999H24.5867ZM23.5265 25.6999C24.1002 25.6999 24.5867 26.1805 24.5867 26.7999H25.5867C25.5867 25.6521 24.6761 24.6999 23.5265 24.6999V25.6999ZM22.2464 24.4C22.2464 25.106 22.8077 25.6999 23.5265 25.6999V24.6999C23.3836 24.6999 23.2464 24.5776 23.2464 24.4H22.2464ZM20.4061 20.9C21.4107 20.9 22.2464 21.7387 22.2464 22.7999H23.2464C23.2464 21.2103 21.9866 19.9 20.4061 19.9V20.9ZM18.0659 34.2999C9.30637 34.2999 2.18402 27.0141 2.18402 18H1.18402C1.18402 27.5425 8.73047 35.2999 18.0659 35.2999V34.2999ZM33.9477 18C33.9477 27.0141 26.8254 34.2999 18.0659 34.2999V35.2999C27.4013 35.2999 34.9477 27.5425 34.9477 18H33.9477ZM18.0659 1.69995C26.8254 1.69995 33.9477 8.98575 33.9477 18H34.9477C34.9477 8.45738 27.4013 0.699951 18.0659 0.699951V1.69995ZM18.0659 0.699951C8.73047 0.699951 1.18402 8.45738 1.18402 18H2.18402C2.18402 8.98575 9.30637 1.69995 18.0659 1.69995V0.699951Z" fill="black"/>
</svg>
