<svg width="36" height="36" viewBox="0 0 36 36" fill="none" xmlns="http://www.w3.org/2000/svg">
<path d="M29.2533 29.7575L28.879 29.426L28.8852 29.4189L28.8918 29.4121L29.2533 29.7575ZM26.913 32.3999V32.8999H26.413V32.3999H26.913ZM18.7221 34.7577L18.7041 34.2581L18.7582 35.2564L18.7221 34.7577ZM17.552 17.9999H18.052C18.052 18.1304 18.001 18.2556 17.9099 18.349L17.552 17.9999ZM1.67012 17.9999C1.67012 27.0141 8.79247 34.2999 17.552 34.2999V35.2999C8.21658 35.2999 0.670124 27.5425 0.670124 17.9999H1.67012ZM17.552 1.69995C8.79247 1.69995 1.67012 8.98575 1.67012 17.9999H0.670124C0.670124 8.45738 8.21658 0.699951 17.552 0.699951V1.69995ZM17.552 0.699951C26.8874 0.699951 34.4338 8.45738 34.4338 17.9999H33.4338C33.4338 8.98575 26.3115 1.69995 17.552 1.69995V0.699951ZM28.8918 29.4121C31.7006 26.4725 33.4338 22.4454 33.4338 17.9999H34.4338C34.4338 22.7095 32.5967 26.9823 29.6148 30.1029L28.8918 29.4121ZM29.6276 30.089L27.2873 32.7314L26.5387 32.0684L28.879 29.426L29.6276 30.089ZM17.552 34.2999C17.9333 34.2999 18.3115 34.2862 18.686 34.2591L18.7582 35.2564C18.3597 35.2853 17.9575 35.2999 17.552 35.2999V34.2999ZM17.5339 34.3003L18.7041 34.2581L18.7401 35.2574L17.57 35.2996L17.5339 34.3003ZM18.052 7.19995V17.9999H17.052V7.19995H18.052ZM17.9099 18.349L10.8892 25.549L10.1732 24.8509L17.194 17.6509L17.9099 18.349ZM35.1039 32.8999H26.913V31.8999H35.1039V32.8999ZM26.413 32.3999V23.9999H27.413V32.3999H26.413Z" fill="black"/>
</svg>
