<svg width="36" height="36" viewBox="0 0 36 36" fill="none" xmlns="http://www.w3.org/2000/svg">
<path d="M24.9953 34.7781V35.2781H25.4953V34.7781H24.9953ZM1.59271 34.7781H1.09271V35.2781H1.59271V34.7781ZM34.3564 34.7999V35.2999H34.8564V34.7999H34.3564ZM19.8148 8.39526C19.8148 12.105 16.8842 15.0906 13.294 15.0906V16.0906C17.4595 16.0906 20.8148 12.634 20.8148 8.39526H19.8148ZM13.294 15.0906C9.70386 15.0906 6.77324 12.105 6.77324 8.39526H5.77324C5.77324 12.634 9.12857 16.0906 13.294 16.0906V15.0906ZM6.77324 8.39526C6.77324 4.68555 9.70386 1.69995 13.294 1.69995V0.699951C9.12857 0.699951 5.77324 4.15655 5.77324 8.39526H6.77324ZM13.294 1.69995C16.8842 1.69995 19.8148 4.68555 19.8148 8.39526H20.8148C20.8148 4.15655 17.4595 0.699951 13.294 0.699951V1.69995ZM24.9953 34.2781H1.59271V35.2781H24.9953V34.2781ZM2.09271 34.7781C2.09271 34.7747 2.09271 34.7714 2.09271 34.7681C2.09271 34.7648 2.09271 34.7614 2.09271 34.7581C2.09271 34.7548 2.09271 34.7514 2.09271 34.7481C2.09271 34.7448 2.09271 34.7415 2.09271 34.7381C2.09271 34.7348 2.09271 34.7315 2.09271 34.7282C2.09271 34.7248 2.09271 34.7215 2.09271 34.7182C2.09271 34.7149 2.09271 34.7115 2.09271 34.7082C2.09271 34.7049 2.09271 34.7016 2.09271 34.6982C2.09271 34.6949 2.09271 34.6916 2.09271 34.6883C2.09271 34.685 2.09271 34.6816 2.09271 34.6783C2.09271 34.675 2.09271 34.6717 2.09271 34.6683C2.09271 34.665 2.09271 34.6617 2.09271 34.6584C2.09271 34.6551 2.09271 34.6517 2.09271 34.6484C2.09271 34.6451 2.09271 34.6418 2.09271 34.6385C2.09271 34.6351 2.09271 34.6318 2.09271 34.6285C2.09271 34.6252 2.09271 34.6219 2.09271 34.6185C2.09271 34.6152 2.09271 34.6119 2.09271 34.6086C2.09271 34.6053 2.09271 34.602 2.09271 34.5986C2.09271 34.5953 2.09271 34.592 2.09271 34.5887C2.09271 34.5854 2.09271 34.5821 2.09271 34.5787C2.09271 34.5754 2.09271 34.5721 2.09271 34.5688C2.09271 34.5655 2.09271 34.5622 2.09271 34.5589C2.09271 34.5555 2.09271 34.5522 2.09271 34.5489C2.09271 34.5456 2.09271 34.5423 2.09271 34.539C2.09271 34.5357 2.09271 34.5324 2.09271 34.529C2.09271 34.5257 2.09271 34.5224 2.09271 34.5191C2.09271 34.5158 2.09271 34.5125 2.09271 34.5092C2.09271 34.5059 2.09271 34.5025 2.09271 34.4992C2.09271 34.4959 2.09271 34.4926 2.09271 34.4893C2.09271 34.486 2.09271 34.4827 2.09271 34.4794C2.09271 34.4761 2.09271 34.4728 2.09271 34.4695C2.09271 34.4661 2.09271 34.4628 2.09271 34.4595C2.09271 34.4562 2.09271 34.4529 2.09271 34.4496C2.09271 34.4463 2.09271 34.443 2.09271 34.4397C2.09271 34.4364 2.09271 34.4331 2.09271 34.4298C2.09271 34.4265 2.09271 34.4232 2.09271 34.4199C2.09271 34.4166 2.09271 34.4132 2.09271 34.4099C2.09271 34.4066 2.09271 34.4033 2.09271 34.4C2.09271 34.3967 2.09271 34.3934 2.09271 34.3901C2.09271 34.3868 2.09271 34.3835 2.09271 34.3802C2.09271 34.3769 2.09271 34.3736 2.09271 34.3703C2.09271 34.367 2.09271 34.3637 2.09271 34.3604C2.09271 34.3571 2.09271 34.3538 2.09271 34.3505C2.09271 34.3472 2.09271 34.3439 2.09271 34.3406C2.09271 34.3373 2.09271 34.334 2.09271 34.3307C2.09271 34.3274 2.09271 34.3241 2.09271 34.3208C2.09271 34.3175 2.09271 34.3142 2.09271 34.3109C2.09271 34.3076 2.09271 34.3043 2.09271 34.301C2.09271 34.2977 2.09271 34.2944 2.09271 34.2911C2.09271 34.2878 2.09271 34.2845 2.09271 34.2813C2.09271 34.278 2.09271 34.2747 2.09271 34.2714C2.09271 34.2681 2.09271 34.2648 2.09271 34.2615C2.09271 34.2582 2.09271 34.2549 2.09271 34.2516C2.09271 34.2483 2.09271 34.245 2.09271 34.2417C2.09271 34.2384 2.09271 34.2351 2.09271 34.2318C2.09271 34.2286 2.09271 34.2253 2.09271 34.222C2.09271 34.2187 2.09271 34.2154 2.09271 34.2121C2.09271 34.2088 2.09271 34.2055 2.09271 34.2022C2.09271 34.1989 2.09271 34.1956 2.09271 34.1924C2.09271 34.1891 2.09271 34.1858 2.09271 34.1825C2.09271 34.1792 2.09271 34.1759 2.09271 34.1726C2.09271 34.1693 2.09271 34.1661 2.09271 34.1628C2.09271 34.1595 2.09271 34.1562 2.09271 34.1529C2.09271 34.1496 2.09271 34.1463 2.09271 34.143C2.09271 34.1398 2.09271 34.1365 2.09271 34.1332C2.09271 34.1299 2.09271 34.1266 2.09271 34.1233C2.09271 34.1201 2.09271 34.1168 2.09271 34.1135C2.09271 34.1102 2.09271 34.1069 2.09271 34.1036C2.09271 34.1004 2.09271 34.0971 2.09271 34.0938C2.09271 34.0905 2.09271 34.0872 2.09271 34.0839C2.09271 34.0807 2.09271 34.0774 2.09271 34.0741C2.09271 34.0708 2.09271 34.0675 2.09271 34.0643C2.09271 34.061 2.09271 34.0577 2.09271 34.0544C2.09271 34.0511 2.09271 34.0479 2.09271 34.0446C2.09271 34.0413 2.09271 34.038 2.09271 34.0347C2.09271 34.0315 2.09271 34.0282 2.09271 34.0249C2.09271 34.0216 2.09271 34.0184 2.09271 34.0151C2.09271 34.0118 2.09271 34.0085 2.09271 34.0053C2.09271 34.002 2.09271 33.9987 2.09271 33.9954C2.09271 33.9922 2.09271 33.9889 2.09271 33.9856C2.09271 33.9823 2.09271 33.9791 2.09271 33.9758C2.09271 33.9725 2.09271 33.9692 2.09271 33.966C2.09271 33.9627 2.09271 33.9594 2.09271 33.9561C2.09271 33.9529 2.09271 33.9496 2.09271 33.9463C2.09271 33.9431 2.09271 33.9398 2.09271 33.9365C2.09271 33.9332 2.09271 33.93 2.09271 33.9267C2.09271 33.9234 2.09271 33.9202 2.09271 33.9169C2.09271 33.9136 2.09271 33.9104 2.09271 33.9071C2.09271 33.9038 2.09271 33.9006 2.09271 33.8973C2.09271 33.894 2.09271 33.8907 2.09271 33.8875C2.09271 33.8842 2.09271 33.8809 2.09271 33.8777C2.09271 33.8744 2.09271 33.8711 2.09271 33.8679C2.09271 33.8646 2.09271 33.8614 2.09271 33.8581C2.09271 33.8548 2.09271 33.8516 2.09271 33.8483C2.09271 33.845 2.09271 33.8418 2.09271 33.8385C2.09271 33.8352 2.09271 33.832 2.09271 33.8287C2.09271 33.8254 2.09271 33.8222 2.09271 33.8189C2.09271 33.8157 2.09271 33.8124 2.09271 33.8091C2.09271 33.8059 2.09271 33.8026 2.09271 33.7994C2.09271 33.7961 2.09271 33.7928 2.09271 33.7896C2.09271 33.7863 2.09271 33.7831 2.09271 33.7798C2.09271 33.7765 2.09271 33.7733 2.09271 33.77C2.09271 33.7668 2.09271 33.7635 2.09271 33.7602C2.09271 33.757 2.09271 33.7537 2.09271 33.7505C2.09271 33.7472 2.09271 33.744 2.09271 33.7407C2.09271 33.7375 2.09271 33.7342 2.09271 33.7309C2.09271 33.7277 2.09271 33.7244 2.09271 33.7212C2.09271 33.7179 2.09271 33.7147 2.09271 33.7114C2.09271 33.7082 2.09271 33.7049 2.09271 33.7017C2.09271 33.6984 2.09271 33.6951 2.09271 33.6919C2.09271 33.6886 2.09271 33.6854 2.09271 33.6821C2.09271 33.6789 2.09271 33.6756 2.09271 33.6724C2.09271 33.6691 2.09271 33.6659 2.09271 33.6626C2.09271 33.6594 2.09271 33.6561 2.09271 33.6529C2.09271 33.6496 2.09271 33.6464 2.09271 33.6431C2.09271 33.6399 2.09271 33.6366 2.09271 33.6334C2.09271 33.6301 2.09271 33.6269 2.09271 33.6236C2.09271 33.6204 2.09271 33.6172 2.09271 33.6139C2.09271 33.6107 2.09271 33.6074 2.09271 33.6042C2.09271 33.6009 2.09271 33.5977 2.09271 33.5944C2.09271 33.5912 2.09271 33.5879 2.09271 33.5847C2.09271 33.5815 2.09271 33.5782 2.09271 33.575C2.09271 33.5717 2.09271 33.5685 2.09271 33.5652C2.09271 33.562 2.09271 33.5588 2.09271 33.5555C2.09271 33.5523 2.09271 33.549 2.09271 33.5458C2.09271 33.5425 2.09271 33.5393 2.09271 33.5361C2.09271 33.5328 2.09271 33.5296 2.09271 33.5263C2.09271 33.5231 2.09271 33.5199 2.09271 33.5166C2.09271 33.5134 2.09271 33.5102 2.09271 33.5069C2.09271 33.5037 2.09271 33.5004 2.09271 33.4972C2.09271 33.494 2.09271 33.4907 2.09271 33.4875C2.09271 33.4843 2.09271 33.481 2.09271 33.4778C2.09271 33.4745 2.09271 33.4713 2.09271 33.4681C2.09271 33.4648 2.09271 33.4616 2.09271 33.4584C2.09271 33.4551 2.09271 33.4519 2.09271 33.4487C2.09271 33.4454 2.09271 33.4422 2.09271 33.439C2.09271 33.4357 2.09271 33.4325 2.09271 33.4293C2.09271 33.426 2.09271 33.4228 2.09271 33.4196C2.09271 33.4163 2.09271 33.4131 2.09271 33.4099C2.09271 33.4067 2.09271 33.4034 2.09271 33.4002C2.09271 33.397 2.09271 33.3937 2.09271 33.3905C2.09271 33.3873 2.09271 33.3841 2.09271 33.3808C2.09271 33.3776 2.09271 33.3744 2.09271 33.3711C2.09271 33.3679 2.09271 33.3647 2.09271 33.3615C2.09271 33.3582 2.09271 33.355 2.09271 33.3518C2.09271 33.3486 2.09271 33.3453 2.09271 33.3421C2.09271 33.3389 2.09271 33.3357 2.09271 33.3324C2.09271 33.3292 2.09271 33.326 2.09271 33.3228C2.09271 33.3195 2.09271 33.3163 2.09271 33.3131C2.09271 33.3099 2.09271 33.3067 2.09271 33.3034C2.09271 33.3002 2.09271 33.297 2.09271 33.2938C2.09271 33.2905 2.09271 33.2873 2.09271 33.2841C2.09271 33.2809 2.09271 33.2777 2.09271 33.2744C2.09271 33.2712 2.09271 33.268 2.09271 33.2648C2.09271 33.2616 2.09271 33.2584 2.09271 33.2551C2.09271 33.2519 2.09271 33.2487 2.09271 33.2455C2.09271 33.2423 2.09271 33.239 2.09271 33.2358C2.09271 33.2326 2.09271 33.2294 2.09271 33.2262C2.09271 33.223 2.09271 33.2198 2.09271 33.2165C2.09271 33.2133 2.09271 33.2101 2.09271 33.2069C2.09271 33.2037 2.09271 33.2005 2.09271 33.1973C2.09271 33.194 2.09271 33.1908 2.09271 33.1876C2.09271 33.1844 2.09271 33.1812 2.09271 33.178C2.09271 33.1748 2.09271 33.1716 2.09271 33.1684C2.09271 33.1651 2.09271 33.1619 2.09271 33.1587C2.09271 33.1555 2.09271 33.1523 2.09271 33.1491C2.09271 33.1459 2.09271 33.1427 2.09271 33.1395C2.09271 33.1363 2.09271 33.1331 2.09271 33.1298C2.09271 33.1266 2.09271 33.1234 2.09271 33.1202C2.09271 33.117 2.09271 33.1138 2.09271 33.1106C2.09271 33.1074 2.09271 33.1042 2.09271 33.101C2.09271 33.0978 2.09271 33.0946 2.09271 33.0914C2.09271 33.0882 2.09271 33.085 2.09271 33.0818C2.09271 33.0786 2.09271 33.0754 2.09271 33.0722C2.09271 33.069 2.09271 33.0658 2.09271 33.0626C2.09271 33.0593 2.09271 33.0561 2.09271 33.0529C2.09271 33.0497 2.09271 33.0465 2.09271 33.0433C2.09271 33.0401 2.09271 33.0369 2.09271 33.0337C2.09271 33.0305 2.09271 33.0273 2.09271 33.0242C2.09271 33.021 2.09271 33.0178 2.09271 33.0146C2.09271 33.0114 2.09271 33.0082 2.09271 33.005C2.09271 33.0018 2.09271 32.9986 2.09271 32.9954C2.09271 32.9922 2.09271 32.989 2.09271 32.9858C2.09271 32.9826 2.09271 32.9794 2.09271 32.9762C2.09271 32.973 2.09271 32.9698 2.09271 32.9666C2.09271 32.9634 2.09271 32.9602 2.09271 32.957C2.09271 32.9539 2.09271 32.9507 2.09271 32.9475C2.09271 32.9443 2.09271 32.9411 2.09271 32.9379C2.09271 32.9347 2.09271 32.9315 2.09271 32.9283C2.09271 32.9251 2.09271 32.9219 2.09271 32.9188C2.09271 32.9156 2.09271 32.9124 2.09271 32.9092C2.09271 32.906 2.09271 32.9028 2.09271 32.8996C2.09271 32.8964 2.09271 32.8933 2.09271 32.8901C2.09271 32.8869 2.09271 32.8837 2.09271 32.8805C2.09271 32.8773 2.09271 32.8741 2.09271 32.8709C2.09271 32.8678 2.09271 32.8646 2.09271 32.8614C2.09271 32.8582 2.09271 32.855 2.09271 32.8518C2.09271 32.8487 2.09271 32.8455 2.09271 32.8423C2.09271 32.8391 2.09271 32.8359 2.09271 32.8327C2.09271 32.8296 2.09271 32.8264 2.09271 32.8232C2.09271 32.82 2.09271 32.8168 2.09271 32.8137C2.09271 32.8105 2.09271 32.8073 2.09271 32.8041C2.09271 32.8009 2.09271 32.7978 2.09271 32.7946C2.09271 32.7914 2.09271 32.7882 2.09271 32.7851C2.09271 32.7819 2.09271 32.7787 2.09271 32.7755C2.09271 32.7723 2.09271 32.7692 2.09271 32.766C2.09271 32.7628 2.09271 32.7596 2.09271 32.7565C2.09271 32.7533 2.09271 32.7501 2.09271 32.7469C2.09271 32.7438 2.09271 32.7406 2.09271 32.7374C2.09271 32.7342 2.09271 32.7311 2.09271 32.7279C2.09271 32.7247 2.09271 32.7216 2.09271 32.7184C2.09271 32.7152 2.09271 32.712 2.09271 32.7089C2.09271 32.7057 2.09271 32.7025 2.09271 32.6994C2.09271 32.6962 2.09271 32.693 2.09271 32.6899C2.09271 32.6867 2.09271 32.6835 2.09271 32.6803C2.09271 32.6772 2.09271 32.674 2.09271 32.6708C2.09271 32.6677 2.09271 32.6645 2.09271 32.6613C2.09271 32.6582 2.09271 32.655 2.09271 32.6518C2.09271 32.6487 2.09271 32.6455 2.09271 32.6424C2.09271 32.6392 2.09271 32.636 2.09271 32.6329C2.09271 32.6297 2.09271 32.6265 2.09271 32.6234C2.09271 32.6202 2.09271 32.617 2.09271 32.6139C2.09271 32.6107 2.09271 32.6076 2.09271 32.6044C2.09271 32.6012 2.09271 32.5981 2.09271 32.5949C2.09271 32.5918 2.09271 32.5886 2.09271 32.5854C2.09271 32.5823 2.09271 32.5791 2.09271 32.576C2.09271 32.5728 2.09271 32.5696 2.09271 32.5665C2.09271 32.5633 2.09271 32.5602 2.09271 32.557C2.09271 32.5539 2.09271 32.5507 2.09271 32.5475C2.09271 32.5444 2.09271 32.5412 2.09271 32.5381C2.09271 32.5349 2.09271 32.5318 2.09271 32.5286C2.09271 32.5255 2.09271 32.5223 2.09271 32.5191C2.09271 32.516 2.09271 32.5128 2.09271 32.5097C2.09271 32.5065 2.09271 32.5034 2.09271 32.5002C2.09271 32.4971 2.09271 32.4939 2.09271 32.4908C2.09271 32.4876 2.09271 32.4845 2.09271 32.4813C2.09271 32.4782 2.09271 32.475 2.09271 32.4719C2.09271 32.4687 2.09271 32.4656 2.09271 32.4624C2.09271 32.4593 2.09271 32.4561 2.09271 32.453C2.09271 32.4498 2.09271 32.4467 2.09271 32.4435C2.09271 32.4404 2.09271 32.4373 2.09271 32.4341C2.09271 32.431 2.09271 32.4278 2.09271 32.4247C2.09271 32.4215 2.09271 32.4184 2.09271 32.4152C2.09271 32.4121 2.09271 32.409 2.09271 32.4058C2.09271 32.4027 2.09271 32.3995 2.09271 32.3964C2.09271 32.3932 2.09271 32.3901 2.09271 32.387C2.09271 32.3838 2.09271 32.3807 2.09271 32.3775C2.09271 32.3744 2.09271 32.3713 2.09271 32.3681C2.09271 32.365 2.09271 32.3618 2.09271 32.3587C2.09271 32.3556 2.09271 32.3524 2.09271 32.3493C2.09271 32.3462 2.09271 32.343 2.09271 32.3399C2.09271 32.3367 2.09271 32.3336 2.09271 32.3305C2.09271 32.3273 2.09271 32.3242 2.09271 32.3211C2.09271 32.3179 2.09271 32.3148 2.09271 32.3117C2.09271 32.3085 2.09271 32.3054 2.09271 32.3023C2.09271 32.2991 2.09271 32.296 2.09271 32.2929C2.09271 32.2897 2.09271 32.2866 2.09271 32.2835C2.09271 32.2803 2.09271 32.2772 2.09271 32.2741C2.09271 32.2709 2.09271 32.2678 2.09271 32.2647C2.09271 32.2616 2.09271 32.2584 2.09271 32.2553C2.09271 32.2522 2.09271 32.249 2.09271 32.2459C2.09271 32.2428 2.09271 32.2397 2.09271 32.2365C2.09271 32.2334 2.09271 32.2303 2.09271 32.2272C2.09271 32.224 2.09271 32.2209 2.09271 32.2178C2.09271 32.2147 2.09271 32.2115 2.09271 32.2084C2.09271 32.2053 2.09271 32.2022 2.09271 32.199C2.09271 32.1959 2.09271 32.1928 2.09271 32.1897C2.09271 32.1865 2.09271 32.1834 2.09271 32.1803C2.09271 32.1772 2.09271 32.1741 2.09271 32.1709C2.09271 32.1678 2.09271 32.1647 2.09271 32.1616C2.09271 32.1585 2.09271 32.1553 2.09271 32.1522C2.09271 32.1491 2.09271 32.146 2.09271 32.1429C2.09271 32.1398 2.09271 32.1366 2.09271 32.1335C2.09271 32.1304 2.09271 32.1273 2.09271 32.1242C2.09271 32.1211 2.09271 32.1179 2.09271 32.1148C2.09271 32.1117 2.09271 32.1086 2.09271 32.1055C2.09271 32.1024 2.09271 32.0993 2.09271 32.0961C2.09271 32.093 2.09271 32.0899 2.09271 32.0868C2.09271 32.0837 2.09271 32.0806 2.09271 32.0775C2.09271 32.0744 2.09271 32.0712 2.09271 32.0681C2.09271 32.065 2.09271 32.0619 2.09271 32.0588C2.09271 32.0557 2.09271 32.0526 2.09271 32.0495C2.09271 32.0464 2.09271 32.0433 2.09271 32.0402C2.09271 32.037 2.09271 32.0339 2.09271 32.0308C2.09271 32.0277 2.09271 32.0246 2.09271 32.0215C2.09271 32.0184 2.09271 32.0153 2.09271 32.0122C2.09271 32.0091 2.09271 32.006 2.09271 32.0029C2.09271 31.9998 2.09271 31.9967 2.09271 31.9936C2.09271 31.9905 2.09271 31.9874 2.09271 31.9843C2.09271 31.9812 2.09271 31.9781 2.09271 31.975C2.09271 31.9719 2.09271 31.9688 2.09271 31.9657C2.09271 31.9626 2.09271 31.9595 2.09271 31.9564C2.09271 31.9533 2.09271 31.9502 2.09271 31.9471C2.09271 31.944 2.09271 31.9409 2.09271 31.9378C2.09271 31.9347 2.09271 31.9316 2.09271 31.9285C2.09271 31.9254 2.09271 31.9223 2.09271 31.9192C2.09271 31.9161 2.09271 31.913 2.09271 31.9099C2.09271 31.9068 2.09271 31.9037 2.09271 31.9006C2.09271 31.8975 2.09271 31.8944 2.09271 31.8914C2.09271 31.8883 2.09271 31.8852 2.09271 31.8821C2.09271 31.879 2.09271 31.8759 2.09271 31.8728C2.09271 31.8697 2.09271 31.8666 2.09271 31.8635C2.09271 31.8604 2.09271 31.8574 2.09271 31.8543C2.09271 31.8512 2.09271 31.8481 2.09271 31.845C2.09271 31.8419 2.09271 31.8388 2.09271 31.8357C2.09271 31.8327 2.09271 31.8296 2.09271 31.8265C2.09271 31.8234 2.09271 31.8203 2.09271 31.8172C2.09271 31.8141 2.09271 31.8111 2.09271 31.808C2.09271 31.8049 2.09271 31.8018 2.09271 31.7987C2.09271 31.7956 2.09271 31.7926 2.09271 31.7895C2.09271 31.7864 2.09271 31.7833 2.09271 31.7802C2.09271 31.7772 2.09271 31.7741 2.09271 31.771C2.09271 31.7679 2.09271 31.7648 2.09271 31.7618C2.09271 31.7587 2.09271 31.7556 2.09271 31.7525C2.09271 31.7494 2.09271 31.7464 2.09271 31.7433C2.09271 31.7402 2.09271 31.7371 2.09271 31.7341C2.09271 31.731 2.09271 31.7279 2.09271 31.7248C2.09271 31.7218 2.09271 31.7187 2.09271 31.7156C2.09271 31.7125 2.09271 31.7095 2.09271 31.7064C2.09271 31.7033 2.09271 31.7002 2.09271 31.6972C2.09271 31.6941 2.09271 31.691 2.09271 31.6879C2.09271 31.6849 2.09271 31.6818 2.09271 31.6787C2.09271 31.6757 2.09271 31.6726 2.09271 31.6695C2.09271 31.6665 2.09271 31.6634 2.09271 31.6603C2.09271 31.6572 2.09271 31.6542 2.09271 31.6511C2.09271 31.648 2.09271 31.645 2.09271 31.6419C2.09271 31.6388 2.09271 31.6358 2.09271 31.6327C2.09271 31.6296 2.09271 31.6266 2.09271 31.6235C2.09271 31.6205 2.09271 31.6174 2.09271 31.6143C2.09271 31.6113 2.09271 31.6082 2.09271 31.6051C2.09271 31.6021 2.09271 31.599 2.09271 31.5959C2.09271 31.5929 2.09271 31.5898 2.09271 31.5868C2.09271 31.5837 2.09271 31.5806 2.09271 31.5776C2.09271 31.5745 2.09271 31.5715 2.09271 31.5684C2.09271 31.5653 2.09271 31.5623 2.09271 31.5592C2.09271 31.5562 2.09271 31.5531 2.09271 31.5501C2.09271 31.547 2.09271 31.5439 2.09271 31.5409C2.09271 31.5378 2.09271 31.5348 2.09271 31.5317C2.09271 31.5287 2.09271 31.5256 2.09271 31.5226C2.09271 31.5195 2.09271 31.5165 2.09271 31.5134C2.09271 31.5104 2.09271 31.5073 2.09271 31.5042C2.09271 31.5012 2.09271 31.4981 2.09271 31.4951C2.09271 31.492 2.09271 31.489 2.09271 31.4859C2.09271 31.4829 2.09271 31.4798 2.09271 31.4768C2.09271 31.4737 2.09271 31.4707 2.09271 31.4676C2.09271 31.4646 2.09271 31.4616 2.09271 31.4585C2.09271 31.4555 2.09271 31.4524 2.09271 31.4494C2.09271 31.4463 2.09271 31.4433 2.09271 31.4402C2.09271 31.4372 2.09271 31.4341 2.09271 31.4311C2.09271 31.4281 2.09271 31.425 2.09271 31.422C2.09271 31.4189 2.09271 31.4159 2.09271 31.4128C2.09271 31.4098 2.09271 31.4068 2.09271 31.4037C2.09271 31.4007 2.09271 31.3976 2.09271 31.3946C2.09271 31.3916 2.09271 31.3885 2.09271 31.3855C2.09271 31.3824 2.09271 31.3794 2.09271 31.3764C2.09271 31.3733 2.09271 31.3703 2.09271 31.3673C2.09271 31.3642 2.09271 31.3612 2.09271 31.3581C2.09271 31.3551 2.09271 31.3521 2.09271 31.349C2.09271 31.346 2.09271 31.343 2.09271 31.3399C2.09271 31.3369 2.09271 31.3339 2.09271 31.3308C2.09271 31.3278 2.09271 31.3248 2.09271 31.3217C2.09271 31.3187 2.09271 31.3157 2.09271 31.3126C2.09271 31.3096 2.09271 31.3066 2.09271 31.3035C2.09271 31.3005 2.09271 31.2975 2.09271 31.2945C2.09271 31.2914 2.09271 31.2884 2.09271 31.2854C2.09271 31.2823 2.09271 31.2793 2.09271 31.2763C2.09271 31.2733 2.09271 31.2702 2.09271 31.2672C2.09271 31.2642 2.09271 31.2612 2.09271 31.2581C2.09271 31.2551 2.09271 31.2521 2.09271 31.2491C2.09271 31.246 2.09271 31.243 2.09271 31.24C2.09271 31.237 2.09271 31.234 2.09271 31.2309C2.09271 31.2279 2.09271 31.2249 2.09271 31.2219C2.09271 31.2188 2.09271 31.2158 2.09271 31.2128C2.09271 31.2098 2.09271 31.2068 2.09271 31.2038C2.09271 31.2007 2.09271 31.1977 2.09271 31.1947C2.09271 31.1917 2.09271 31.1887 2.09271 31.1856C2.09271 31.1826 2.09271 31.1796 2.09271 31.1766C2.09271 31.1736 2.09271 31.1706 2.09271 31.1676C2.09271 31.1645 2.09271 31.1615 2.09271 31.1585C2.09271 31.1555 2.09271 31.1525 2.09271 31.1495C2.09271 31.1465 2.09271 31.1434 2.09271 31.1404C2.09271 31.1374 2.09271 31.1344 2.09271 31.1314C2.09271 31.1284 2.09271 31.1254 2.09271 31.1224C2.09271 31.1194 2.09271 31.1164 2.09271 31.1133C2.09271 31.1103 2.09271 31.1073 2.09271 31.1043C2.09271 31.1013 2.09271 31.0983 2.09271 31.0953C2.09271 31.0923 2.09271 31.0893 2.09271 31.0863C2.09271 31.0833 2.09271 31.0803 2.09271 31.0773C2.09271 31.0743 2.09271 31.0713 2.09271 31.0683C2.09271 31.0653 2.09271 31.0623 2.09271 31.0593C2.09271 31.0562 2.09271 31.0532 2.09271 31.0502C2.09271 31.0472 2.09271 31.0442 2.09271 31.0412C2.09271 31.0382 2.09271 31.0352 2.09271 31.0322C2.09271 31.0292 2.09271 31.0262 2.09271 31.0233C2.09271 31.0203 2.09271 31.0173 2.09271 31.0143C2.09271 31.0113 2.09271 31.0083 2.09271 31.0053C2.09271 31.0023 2.09271 30.9993 2.09271 30.9963C2.09271 30.9933 2.09271 30.9903 2.09271 30.9873C2.09271 30.9843 2.09271 30.9813 2.09271 30.9783C2.09271 30.9753 2.09271 30.9723 2.09271 30.9693C2.09271 30.9664 2.09271 30.9634 2.09271 30.9604C2.09271 30.9574 2.09271 30.9544 2.09271 30.9514C2.09271 30.9484 2.09271 30.9454 2.09271 30.9424C2.09271 30.9394 2.09271 30.9365 2.09271 30.9335C2.09271 30.9305 2.09271 30.9275 2.09271 30.9245C2.09271 30.9215 2.09271 30.9185 2.09271 30.9156C2.09271 30.9126 2.09271 30.9096 2.09271 30.9066C2.09271 30.9036 2.09271 30.9006 2.09271 30.8976C2.09271 30.8947 2.09271 30.8917 2.09271 30.8887C2.09271 30.8857 2.09271 30.8827 2.09271 30.8798C2.09271 30.8768 2.09271 30.8738 2.09271 30.8708C2.09271 30.8678 2.09271 30.8649 2.09271 30.8619C2.09271 30.8589 2.09271 30.8559 2.09271 30.8529C2.09271 30.85 2.09271 30.847 2.09271 30.844C2.09271 30.841 2.09271 30.8381 2.09271 30.8351C2.09271 30.8321 2.09271 30.8291 2.09271 30.8262C2.09271 30.8232 2.09271 30.8202 2.09271 30.8172C2.09271 30.8143 2.09271 30.8113 2.09271 30.8083C2.09271 30.8053 2.09271 30.8024 2.09271 30.7994C2.09271 30.7964 2.09271 30.7935 2.09271 30.7905C2.09271 30.7875 2.09271 30.7845 2.09271 30.7816C2.09271 30.7786 2.09271 30.7756 2.09271 30.7727C2.09271 30.7697 2.09271 30.7667 2.09271 30.7638C2.09271 30.7608 2.09271 30.7578 2.09271 30.7549C2.09271 30.7519 2.09271 30.7489 2.09271 30.746C2.09271 30.743 2.09271 30.74 2.09271 30.7371C2.09271 30.7341 2.09271 30.7311 2.09271 30.7282C2.09271 30.7252 2.09271 30.7223 2.09271 30.7193C2.09271 30.7163 2.09271 30.7134 2.09271 30.7104C2.09271 30.7074 2.09271 30.7045 2.09271 30.7015C2.09271 30.6986 2.09271 30.6956 2.09271 30.6927C2.09271 30.6897 2.09271 30.6867 2.09271 30.6838C2.09271 30.6808 2.09271 30.6779 2.09271 30.6749C2.09271 30.672 2.09271 30.669 2.09271 30.666C2.09271 30.6631 2.09271 30.6601 2.09271 30.6572C2.09271 30.6542 2.09271 30.6513 2.09271 30.6483C2.09271 30.6454 2.09271 30.6424 2.09271 30.6395C2.09271 30.6365 2.09271 30.6336 2.09271 30.6306C2.09271 30.6277 2.09271 30.6247 2.09271 30.6218C2.09271 30.6188 2.09271 30.6159 2.09271 30.6129C2.09271 30.61 2.09271 30.607 2.09271 30.6041C2.09271 30.6011 2.09271 30.5982 2.09271 30.5952C2.09271 30.5923 2.09271 30.5893 2.09271 30.5864C2.09271 30.5834 2.09271 30.5805 2.09271 30.5775C2.09271 30.5746 2.09271 30.5717 2.09271 30.5687C2.09271 30.5658 2.09271 30.5628 2.09271 30.5599C2.09271 30.5569 2.09271 30.554 2.09271 30.5511C2.09271 30.5481 2.09271 30.5452 2.09271 30.5422C2.09271 30.5393 2.09271 30.5364 2.09271 30.5334C2.09271 30.5305 2.09271 30.5275 2.09271 30.5246C2.09271 30.5217 2.09271 30.5187 2.09271 30.5158C2.09271 30.5129 2.09271 30.5099 2.09271 30.507C2.09271 30.504 2.09271 30.5011 2.09271 30.4982C2.09271 30.4952 2.09271 30.4923 2.09271 30.4894C2.09271 30.4864 2.09271 30.4835 2.09271 30.4806C2.09271 30.4776 2.09271 30.4747 2.09271 30.4718C2.09271 30.4689 2.09271 30.4659 2.09271 30.463C2.09271 30.4601 2.09271 30.4571 2.09271 30.4542C2.09271 30.4513 2.09271 30.4483 2.09271 30.4454C2.09271 30.4425 2.09271 30.4396 2.09271 30.4366C2.09271 30.4337 2.09271 30.4308 2.09271 30.4279C2.09271 30.4249 2.09271 30.422 2.09271 30.4191C2.09271 30.4162 2.09271 30.4132 2.09271 30.4103C2.09271 30.4074 2.09271 30.4045 2.09271 30.4015C2.09271 30.3986 2.09271 30.3957 2.09271 30.3928C2.09271 30.3899 2.09271 30.3869 2.09271 30.384C2.09271 30.3811 2.09271 30.3782 2.09271 30.3753C2.09271 30.3723 2.09271 30.3694 2.09271 30.3665C2.09271 30.3636 2.09271 30.3607 2.09271 30.3577C2.09271 30.3548 2.09271 30.3519 2.09271 30.349C2.09271 30.3461 2.09271 30.3432 2.09271 30.3403C2.09271 30.3373 2.09271 30.3344 2.09271 30.3315C2.09271 30.3286 2.09271 30.3257 2.09271 30.3228C2.09271 30.3199 2.09271 30.317 2.09271 30.314C2.09271 30.3111 2.09271 30.3082 2.09271 30.3053C2.09271 30.3024 2.09271 30.2995 2.09271 30.2966C2.09271 30.2937 2.09271 30.2908 2.09271 30.2879C2.09271 30.285 2.09271 30.282 2.09271 30.2791C2.09271 30.2762 2.09271 30.2733 2.09271 30.2704C2.09271 30.2675 2.09271 30.2646 2.09271 30.2617C2.09271 30.2588 2.09271 30.2559 2.09271 30.253C2.09271 30.2501 2.09271 30.2472 2.09271 30.2443C2.09271 30.2414 2.09271 30.2385 2.09271 30.2356C2.09271 30.2327 2.09271 30.2298 2.09271 30.2269C2.09271 30.224 2.09271 30.2211 2.09271 30.2182C2.09271 30.2153 2.09271 30.2124 2.09271 30.2095C2.09271 30.2066 2.09271 30.2037 2.09271 30.2008C2.09271 30.1979 2.09271 30.195 2.09271 30.1921C2.09271 30.1892 2.09271 30.1863 2.09271 30.1834C2.09271 30.1805 2.09271 30.1776 2.09271 30.1747C2.09271 30.1719 2.09271 30.169 2.09271 30.1661C2.09271 30.1632 2.09271 30.1603 2.09271 30.1574C2.09271 30.1545 2.09271 30.1516 2.09271 30.1487C2.09271 30.1458 2.09271 30.143 2.09271 30.1401C2.09271 30.1372 2.09271 30.1343 2.09271 30.1314C2.09271 30.1285 2.09271 30.1256 2.09271 30.1227C2.09271 30.1199 2.09271 30.117 2.09271 30.1141C2.09271 30.1112 2.09271 30.1083 2.09271 30.1054C2.09271 30.1025 2.09271 30.0997 2.09271 30.0968C2.09271 30.0939 2.09271 30.091 2.09271 30.0881C2.09271 30.0853 2.09271 30.0824 2.09271 30.0795C2.09271 30.0766 2.09271 30.0737 2.09271 30.0709C2.09271 30.068 2.09271 30.0651 2.09271 30.0622C2.09271 30.0593 2.09271 30.0565 2.09271 30.0536C2.09271 30.0507 2.09271 30.0478 2.09271 30.045C2.09271 30.0421 2.09271 30.0392 2.09271 30.0363C2.09271 30.0335 2.09271 30.0306 2.09271 30.0277C2.09271 30.0248 2.09271 30.022 2.09271 30.0191C2.09271 30.0162 2.09271 30.0134 2.09271 30.0105C2.09271 30.0076 2.09271 30.0047 2.09271 30.0019C2.09271 29.999 2.09271 29.9961 2.09271 29.9933C2.09271 29.9904 2.09271 29.9875 2.09271 29.9847H1.09271C1.09271 29.9875 1.09271 29.9904 1.09271 29.9933C1.09271 29.9961 1.09271 29.999 1.09271 30.0019C1.09271 30.0047 1.09271 30.0076 1.09271 30.0105C1.09271 30.0134 1.09271 30.0162 1.09271 30.0191C1.09271 30.022 1.09271 30.0248 1.09271 30.0277C1.09271 30.0306 1.09271 30.0335 1.09271 30.0363C1.09271 30.0392 1.09271 30.0421 1.09271 30.045C1.09271 30.0478 1.09271 30.0507 1.09271 30.0536C1.09271 30.0565 1.09271 30.0593 1.09271 30.0622C1.09271 30.0651 1.09271 30.068 1.09271 30.0709C1.09271 30.0737 1.09271 30.0766 1.09271 30.0795C1.09271 30.0824 1.09271 30.0853 1.09271 30.0881C1.09271 30.091 1.09271 30.0939 1.09271 30.0968C1.09271 30.0997 1.09271 30.1025 1.09271 30.1054C1.09271 30.1083 1.09271 30.1112 1.09271 30.1141C1.09271 30.117 1.09271 30.1199 1.09271 30.1227C1.09271 30.1256 1.09271 30.1285 1.09271 30.1314C1.09271 30.1343 1.09271 30.1372 1.09271 30.1401C1.09271 30.143 1.09271 30.1458 1.09271 30.1487C1.09271 30.1516 1.09271 30.1545 1.09271 30.1574C1.09271 30.1603 1.09271 30.1632 1.09271 30.1661C1.09271 30.169 1.09271 30.1719 1.09271 30.1747C1.09271 30.1776 1.09271 30.1805 1.09271 30.1834C1.09271 30.1863 1.09271 30.1892 1.09271 30.1921C1.09271 30.195 1.09271 30.1979 1.09271 30.2008C1.09271 30.2037 1.09271 30.2066 1.09271 30.2095C1.09271 30.2124 1.09271 30.2153 1.09271 30.2182C1.09271 30.2211 1.09271 30.224 1.09271 30.2269C1.09271 30.2298 1.09271 30.2327 1.09271 30.2356C1.09271 30.2385 1.09271 30.2414 1.09271 30.2443C1.09271 30.2472 1.09271 30.2501 1.09271 30.253C1.09271 30.2559 1.09271 30.2588 1.09271 30.2617C1.09271 30.2646 1.09271 30.2675 1.09271 30.2704C1.09271 30.2733 1.09271 30.2762 1.09271 30.2791C1.09271 30.282 1.09271 30.285 1.09271 30.2879C1.09271 30.2908 1.09271 30.2937 1.09271 30.2966C1.09271 30.2995 1.09271 30.3024 1.09271 30.3053C1.09271 30.3082 1.09271 30.3111 1.09271 30.314C1.09271 30.317 1.09271 30.3199 1.09271 30.3228C1.09271 30.3257 1.09271 30.3286 1.09271 30.3315C1.09271 30.3344 1.09271 30.3373 1.09271 30.3403C1.09271 30.3432 1.09271 30.3461 1.09271 30.349C1.09271 30.3519 1.09271 30.3548 1.09271 30.3577C1.09271 30.3607 1.09271 30.3636 1.09271 30.3665C1.09271 30.3694 1.09271 30.3723 1.09271 30.3753C1.09271 30.3782 1.09271 30.3811 1.09271 30.384C1.09271 30.3869 1.09271 30.3899 1.09271 30.3928C1.09271 30.3957 1.09271 30.3986 1.09271 30.4015C1.09271 30.4045 1.09271 30.4074 1.09271 30.4103C1.09271 30.4132 1.09271 30.4162 1.09271 30.4191C1.09271 30.422 1.09271 30.4249 1.09271 30.4279C1.09271 30.4308 1.09271 30.4337 1.09271 30.4366C1.09271 30.4396 1.09271 30.4425 1.09271 30.4454C1.09271 30.4483 1.09271 30.4513 1.09271 30.4542C1.09271 30.4571 1.09271 30.4601 1.09271 30.463C1.09271 30.4659 1.09271 30.4689 1.09271 30.4718C1.09271 30.4747 1.09271 30.4776 1.09271 30.4806C1.09271 30.4835 1.09271 30.4864 1.09271 30.4894C1.09271 30.4923 1.09271 30.4952 1.09271 30.4982C1.09271 30.5011 1.09271 30.504 1.09271 30.507C1.09271 30.5099 1.09271 30.5129 1.09271 30.5158C1.09271 30.5187 1.09271 30.5217 1.09271 30.5246C1.09271 30.5275 1.09271 30.5305 1.09271 30.5334C1.09271 30.5364 1.09271 30.5393 1.09271 30.5422C1.09271 30.5452 1.09271 30.5481 1.09271 30.5511C1.09271 30.554 1.09271 30.5569 1.09271 30.5599C1.09271 30.5628 1.09271 30.5658 1.09271 30.5687C1.09271 30.5717 1.09271 30.5746 1.09271 30.5775C1.09271 30.5805 1.09271 30.5834 1.09271 30.5864C1.09271 30.5893 1.09271 30.5923 1.09271 30.5952C1.09271 30.5982 1.09271 30.6011 1.09271 30.6041C1.09271 30.607 1.09271 30.61 1.09271 30.6129C1.09271 30.6159 1.09271 30.6188 1.09271 30.6218C1.09271 30.6247 1.09271 30.6277 1.09271 30.6306C1.09271 30.6336 1.09271 30.6365 1.09271 30.6395C1.09271 30.6424 1.09271 30.6454 1.09271 30.6483C1.09271 30.6513 1.09271 30.6542 1.09271 30.6572C1.09271 30.6601 1.09271 30.6631 1.09271 30.666C1.09271 30.669 1.09271 30.672 1.09271 30.6749C1.09271 30.6779 1.09271 30.6808 1.09271 30.6838C1.09271 30.6867 1.09271 30.6897 1.09271 30.6927C1.09271 30.6956 1.09271 30.6986 1.09271 30.7015C1.09271 30.7045 1.09271 30.7074 1.09271 30.7104C1.09271 30.7134 1.09271 30.7163 1.09271 30.7193C1.09271 30.7223 1.09271 30.7252 1.09271 30.7282C1.09271 30.7311 1.09271 30.7341 1.09271 30.7371C1.09271 30.74 1.09271 30.743 1.09271 30.746C1.09271 30.7489 1.09271 30.7519 1.09271 30.7549C1.09271 30.7578 1.09271 30.7608 1.09271 30.7638C1.09271 30.7667 1.09271 30.7697 1.09271 30.7727C1.09271 30.7756 1.09271 30.7786 1.09271 30.7816C1.09271 30.7845 1.09271 30.7875 1.09271 30.7905C1.09271 30.7935 1.09271 30.7964 1.09271 30.7994C1.09271 30.8024 1.09271 30.8053 1.09271 30.8083C1.09271 30.8113 1.09271 30.8143 1.09271 30.8172C1.09271 30.8202 1.09271 30.8232 1.09271 30.8262C1.09271 30.8291 1.09271 30.8321 1.09271 30.8351C1.09271 30.8381 1.09271 30.841 1.09271 30.844C1.09271 30.847 1.09271 30.85 1.09271 30.8529C1.09271 30.8559 1.09271 30.8589 1.09271 30.8619C1.09271 30.8649 1.09271 30.8678 1.09271 30.8708C1.09271 30.8738 1.09271 30.8768 1.09271 30.8798C1.09271 30.8827 1.09271 30.8857 1.09271 30.8887C1.09271 30.8917 1.09271 30.8947 1.09271 30.8976C1.09271 30.9006 1.09271 30.9036 1.09271 30.9066C1.09271 30.9096 1.09271 30.9126 1.09271 30.9156C1.09271 30.9185 1.09271 30.9215 1.09271 30.9245C1.09271 30.9275 1.09271 30.9305 1.09271 30.9335C1.09271 30.9365 1.09271 30.9394 1.09271 30.9424C1.09271 30.9454 1.09271 30.9484 1.09271 30.9514C1.09271 30.9544 1.09271 30.9574 1.09271 30.9604C1.09271 30.9634 1.09271 30.9664 1.09271 30.9693C1.09271 30.9723 1.09271 30.9753 1.09271 30.9783C1.09271 30.9813 1.09271 30.9843 1.09271 30.9873C1.09271 30.9903 1.09271 30.9933 1.09271 30.9963C1.09271 30.9993 1.09271 31.0023 1.09271 31.0053C1.09271 31.0083 1.09271 31.0113 1.09271 31.0143C1.09271 31.0173 1.09271 31.0203 1.09271 31.0233C1.09271 31.0262 1.09271 31.0292 1.09271 31.0322C1.09271 31.0352 1.09271 31.0382 1.09271 31.0412C1.09271 31.0442 1.09271 31.0472 1.09271 31.0502C1.09271 31.0532 1.09271 31.0562 1.09271 31.0593C1.09271 31.0623 1.09271 31.0653 1.09271 31.0683C1.09271 31.0713 1.09271 31.0743 1.09271 31.0773C1.09271 31.0803 1.09271 31.0833 1.09271 31.0863C1.09271 31.0893 1.09271 31.0923 1.09271 31.0953C1.09271 31.0983 1.09271 31.1013 1.09271 31.1043C1.09271 31.1073 1.09271 31.1103 1.09271 31.1133C1.09271 31.1164 1.09271 31.1194 1.09271 31.1224C1.09271 31.1254 1.09271 31.1284 1.09271 31.1314C1.09271 31.1344 1.09271 31.1374 1.09271 31.1404C1.09271 31.1434 1.09271 31.1465 1.09271 31.1495C1.09271 31.1525 1.09271 31.1555 1.09271 31.1585C1.09271 31.1615 1.09271 31.1645 1.09271 31.1676C1.09271 31.1706 1.09271 31.1736 1.09271 31.1766C1.09271 31.1796 1.09271 31.1826 1.09271 31.1856C1.09271 31.1887 1.09271 31.1917 1.09271 31.1947C1.09271 31.1977 1.09271 31.2007 1.09271 31.2038C1.09271 31.2068 1.09271 31.2098 1.09271 31.2128C1.09271 31.2158 1.09271 31.2188 1.09271 31.2219C1.09271 31.2249 1.09271 31.2279 1.09271 31.2309C1.09271 31.234 1.09271 31.237 1.09271 31.24C1.09271 31.243 1.09271 31.246 1.09271 31.2491C1.09271 31.2521 1.09271 31.2551 1.09271 31.2581C1.09271 31.2612 1.09271 31.2642 1.09271 31.2672C1.09271 31.2702 1.09271 31.2733 1.09271 31.2763C1.09271 31.2793 1.09271 31.2823 1.09271 31.2854C1.09271 31.2884 1.09271 31.2914 1.09271 31.2945C1.09271 31.2975 1.09271 31.3005 1.09271 31.3035C1.09271 31.3066 1.09271 31.3096 1.09271 31.3126C1.09271 31.3157 1.09271 31.3187 1.09271 31.3217C1.09271 31.3248 1.09271 31.3278 1.09271 31.3308C1.09271 31.3339 1.09271 31.3369 1.09271 31.3399C1.09271 31.343 1.09271 31.346 1.09271 31.349C1.09271 31.3521 1.09271 31.3551 1.09271 31.3581C1.09271 31.3612 1.09271 31.3642 1.09271 31.3673C1.09271 31.3703 1.09271 31.3733 1.09271 31.3764C1.09271 31.3794 1.09271 31.3824 1.09271 31.3855C1.09271 31.3885 1.09271 31.3916 1.09271 31.3946C1.09271 31.3976 1.09271 31.4007 1.09271 31.4037C1.09271 31.4068 1.09271 31.4098 1.09271 31.4128C1.09271 31.4159 1.09271 31.4189 1.09271 31.422C1.09271 31.425 1.09271 31.4281 1.09271 31.4311C1.09271 31.4341 1.09271 31.4372 1.09271 31.4402C1.09271 31.4433 1.09271 31.4463 1.09271 31.4494C1.09271 31.4524 1.09271 31.4555 1.09271 31.4585C1.09271 31.4616 1.09271 31.4646 1.09271 31.4676C1.09271 31.4707 1.09271 31.4737 1.09271 31.4768C1.09271 31.4798 1.09271 31.4829 1.09271 31.4859C1.09271 31.489 1.09271 31.492 1.09271 31.4951C1.09271 31.4981 1.09271 31.5012 1.09271 31.5042C1.09271 31.5073 1.09271 31.5104 1.09271 31.5134C1.09271 31.5165 1.09271 31.5195 1.09271 31.5226C1.09271 31.5256 1.09271 31.5287 1.09271 31.5317C1.09271 31.5348 1.09271 31.5378 1.09271 31.5409C1.09271 31.5439 1.09271 31.547 1.09271 31.5501C1.09271 31.5531 1.09271 31.5562 1.09271 31.5592C1.09271 31.5623 1.09271 31.5653 1.09271 31.5684C1.09271 31.5715 1.09271 31.5745 1.09271 31.5776C1.09271 31.5806 1.09271 31.5837 1.09271 31.5868C1.09271 31.5898 1.09271 31.5929 1.09271 31.5959C1.09271 31.599 1.09271 31.6021 1.09271 31.6051C1.09271 31.6082 1.09271 31.6113 1.09271 31.6143C1.09271 31.6174 1.09271 31.6205 1.09271 31.6235C1.09271 31.6266 1.09271 31.6296 1.09271 31.6327C1.09271 31.6358 1.09271 31.6388 1.09271 31.6419C1.09271 31.645 1.09271 31.648 1.09271 31.6511C1.09271 31.6542 1.09271 31.6572 1.09271 31.6603C1.09271 31.6634 1.09271 31.6665 1.09271 31.6695C1.09271 31.6726 1.09271 31.6757 1.09271 31.6787C1.09271 31.6818 1.09271 31.6849 1.09271 31.6879C1.09271 31.691 1.09271 31.6941 1.09271 31.6972C1.09271 31.7002 1.09271 31.7033 1.09271 31.7064C1.09271 31.7095 1.09271 31.7125 1.09271 31.7156C1.09271 31.7187 1.09271 31.7218 1.09271 31.7248C1.09271 31.7279 1.09271 31.731 1.09271 31.7341C1.09271 31.7371 1.09271 31.7402 1.09271 31.7433C1.09271 31.7464 1.09271 31.7494 1.09271 31.7525C1.09271 31.7556 1.09271 31.7587 1.09271 31.7618C1.09271 31.7648 1.09271 31.7679 1.09271 31.771C1.09271 31.7741 1.09271 31.7772 1.09271 31.7802C1.09271 31.7833 1.09271 31.7864 1.09271 31.7895C1.09271 31.7926 1.09271 31.7956 1.09271 31.7987C1.09271 31.8018 1.09271 31.8049 1.09271 31.808C1.09271 31.8111 1.09271 31.8141 1.09271 31.8172C1.09271 31.8203 1.09271 31.8234 1.09271 31.8265C1.09271 31.8296 1.09271 31.8327 1.09271 31.8357C1.09271 31.8388 1.09271 31.8419 1.09271 31.845C1.09271 31.8481 1.09271 31.8512 1.09271 31.8543C1.09271 31.8574 1.09271 31.8604 1.09271 31.8635C1.09271 31.8666 1.09271 31.8697 1.09271 31.8728C1.09271 31.8759 1.09271 31.879 1.09271 31.8821C1.09271 31.8852 1.09271 31.8883 1.09271 31.8914C1.09271 31.8944 1.09271 31.8975 1.09271 31.9006C1.09271 31.9037 1.09271 31.9068 1.09271 31.9099C1.09271 31.913 1.09271 31.9161 1.09271 31.9192C1.09271 31.9223 1.09271 31.9254 1.09271 31.9285C1.09271 31.9316 1.09271 31.9347 1.09271 31.9378C1.09271 31.9409 1.09271 31.944 1.09271 31.9471C1.09271 31.9502 1.09271 31.9533 1.09271 31.9564C1.09271 31.9595 1.09271 31.9626 1.09271 31.9657C1.09271 31.9688 1.09271 31.9719 1.09271 31.975C1.09271 31.9781 1.09271 31.9812 1.09271 31.9843C1.09271 31.9874 1.09271 31.9905 1.09271 31.9936C1.09271 31.9967 1.09271 31.9998 1.09271 32.0029C1.09271 32.006 1.09271 32.0091 1.09271 32.0122C1.09271 32.0153 1.09271 32.0184 1.09271 32.0215C1.09271 32.0246 1.09271 32.0277 1.09271 32.0308C1.09271 32.0339 1.09271 32.037 1.09271 32.0402C1.09271 32.0433 1.09271 32.0464 1.09271 32.0495C1.09271 32.0526 1.09271 32.0557 1.09271 32.0588C1.09271 32.0619 1.09271 32.065 1.09271 32.0681C1.09271 32.0712 1.09271 32.0744 1.09271 32.0775C1.09271 32.0806 1.09271 32.0837 1.09271 32.0868C1.09271 32.0899 1.09271 32.093 1.09271 32.0961C1.09271 32.0993 1.09271 32.1024 1.09271 32.1055C1.09271 32.1086 1.09271 32.1117 1.09271 32.1148C1.09271 32.1179 1.09271 32.1211 1.09271 32.1242C1.09271 32.1273 1.09271 32.1304 1.09271 32.1335C1.09271 32.1366 1.09271 32.1398 1.09271 32.1429C1.09271 32.146 1.09271 32.1491 1.09271 32.1522C1.09271 32.1553 1.09271 32.1585 1.09271 32.1616C1.09271 32.1647 1.09271 32.1678 1.09271 32.1709C1.09271 32.1741 1.09271 32.1772 1.09271 32.1803C1.09271 32.1834 1.09271 32.1865 1.09271 32.1897C1.09271 32.1928 1.09271 32.1959 1.09271 32.199C1.09271 32.2022 1.09271 32.2053 1.09271 32.2084C1.09271 32.2115 1.09271 32.2147 1.09271 32.2178C1.09271 32.2209 1.09271 32.224 1.09271 32.2272C1.09271 32.2303 1.09271 32.2334 1.09271 32.2365C1.09271 32.2397 1.09271 32.2428 1.09271 32.2459C1.09271 32.249 1.09271 32.2522 1.09271 32.2553C1.09271 32.2584 1.09271 32.2616 1.09271 32.2647C1.09271 32.2678 1.09271 32.2709 1.09271 32.2741C1.09271 32.2772 1.09271 32.2803 1.09271 32.2835C1.09271 32.2866 1.09271 32.2897 1.09271 32.2929C1.09271 32.296 1.09271 32.2991 1.09271 32.3023C1.09271 32.3054 1.09271 32.3085 1.09271 32.3117C1.09271 32.3148 1.09271 32.3179 1.09271 32.3211C1.09271 32.3242 1.09271 32.3273 1.09271 32.3305C1.09271 32.3336 1.09271 32.3367 1.09271 32.3399C1.09271 32.343 1.09271 32.3462 1.09271 32.3493C1.09271 32.3524 1.09271 32.3556 1.09271 32.3587C1.09271 32.3618 1.09271 32.365 1.09271 32.3681C1.09271 32.3713 1.09271 32.3744 1.09271 32.3775C1.09271 32.3807 1.09271 32.3838 1.09271 32.387C1.09271 32.3901 1.09271 32.3932 1.09271 32.3964C1.09271 32.3995 1.09271 32.4027 1.09271 32.4058C1.09271 32.409 1.09271 32.4121 1.09271 32.4152C1.09271 32.4184 1.09271 32.4215 1.09271 32.4247C1.09271 32.4278 1.09271 32.431 1.09271 32.4341C1.09271 32.4373 1.09271 32.4404 1.09271 32.4435C1.09271 32.4467 1.09271 32.4498 1.09271 32.453C1.09271 32.4561 1.09271 32.4593 1.09271 32.4624C1.09271 32.4656 1.09271 32.4687 1.09271 32.4719C1.09271 32.475 1.09271 32.4782 1.09271 32.4813C1.09271 32.4845 1.09271 32.4876 1.09271 32.4908C1.09271 32.4939 1.09271 32.4971 1.09271 32.5002C1.09271 32.5034 1.09271 32.5065 1.09271 32.5097C1.09271 32.5128 1.09271 32.516 1.09271 32.5191C1.09271 32.5223 1.09271 32.5255 1.09271 32.5286C1.09271 32.5318 1.09271 32.5349 1.09271 32.5381C1.09271 32.5412 1.09271 32.5444 1.09271 32.5475C1.09271 32.5507 1.09271 32.5539 1.09271 32.557C1.09271 32.5602 1.09271 32.5633 1.09271 32.5665C1.09271 32.5696 1.09271 32.5728 1.09271 32.576C1.09271 32.5791 1.09271 32.5823 1.09271 32.5854C1.09271 32.5886 1.09271 32.5918 1.09271 32.5949C1.09271 32.5981 1.09271 32.6012 1.09271 32.6044C1.09271 32.6076 1.09271 32.6107 1.09271 32.6139C1.09271 32.617 1.09271 32.6202 1.09271 32.6234C1.09271 32.6265 1.09271 32.6297 1.09271 32.6329C1.09271 32.636 1.09271 32.6392 1.09271 32.6424C1.09271 32.6455 1.09271 32.6487 1.09271 32.6518C1.09271 32.655 1.09271 32.6582 1.09271 32.6613C1.09271 32.6645 1.09271 32.6677 1.09271 32.6708C1.09271 32.674 1.09271 32.6772 1.09271 32.6803C1.09271 32.6835 1.09271 32.6867 1.09271 32.6899C1.09271 32.693 1.09271 32.6962 1.09271 32.6994C1.09271 32.7025 1.09271 32.7057 1.09271 32.7089C1.09271 32.712 1.09271 32.7152 1.09271 32.7184C1.09271 32.7216 1.09271 32.7247 1.09271 32.7279C1.09271 32.7311 1.09271 32.7342 1.09271 32.7374C1.09271 32.7406 1.09271 32.7438 1.09271 32.7469C1.09271 32.7501 1.09271 32.7533 1.09271 32.7565C1.09271 32.7596 1.09271 32.7628 1.09271 32.766C1.09271 32.7692 1.09271 32.7723 1.09271 32.7755C1.09271 32.7787 1.09271 32.7819 1.09271 32.7851C1.09271 32.7882 1.09271 32.7914 1.09271 32.7946C1.09271 32.7978 1.09271 32.8009 1.09271 32.8041C1.09271 32.8073 1.09271 32.8105 1.09271 32.8137C1.09271 32.8168 1.09271 32.82 1.09271 32.8232C1.09271 32.8264 1.09271 32.8296 1.09271 32.8327C1.09271 32.8359 1.09271 32.8391 1.09271 32.8423C1.09271 32.8455 1.09271 32.8487 1.09271 32.8518C1.09271 32.855 1.09271 32.8582 1.09271 32.8614C1.09271 32.8646 1.09271 32.8678 1.09271 32.8709C1.09271 32.8741 1.09271 32.8773 1.09271 32.8805C1.09271 32.8837 1.09271 32.8869 1.09271 32.8901C1.09271 32.8933 1.09271 32.8964 1.09271 32.8996C1.09271 32.9028 1.09271 32.906 1.09271 32.9092C1.09271 32.9124 1.09271 32.9156 1.09271 32.9188C1.09271 32.9219 1.09271 32.9251 1.09271 32.9283C1.09271 32.9315 1.09271 32.9347 1.09271 32.9379C1.09271 32.9411 1.09271 32.9443 1.09271 32.9475C1.09271 32.9507 1.09271 32.9539 1.09271 32.957C1.09271 32.9602 1.09271 32.9634 1.09271 32.9666C1.09271 32.9698 1.09271 32.973 1.09271 32.9762C1.09271 32.9794 1.09271 32.9826 1.09271 32.9858C1.09271 32.989 1.09271 32.9922 1.09271 32.9954C1.09271 32.9986 1.09271 33.0018 1.09271 33.005C1.09271 33.0082 1.09271 33.0114 1.09271 33.0146C1.09271 33.0178 1.09271 33.021 1.09271 33.0242C1.09271 33.0273 1.09271 33.0305 1.09271 33.0337C1.09271 33.0369 1.09271 33.0401 1.09271 33.0433C1.09271 33.0465 1.09271 33.0497 1.09271 33.0529C1.09271 33.0561 1.09271 33.0593 1.09271 33.0626C1.09271 33.0658 1.09271 33.069 1.09271 33.0722C1.09271 33.0754 1.09271 33.0786 1.09271 33.0818C1.09271 33.085 1.09271 33.0882 1.09271 33.0914C1.09271 33.0946 1.09271 33.0978 1.09271 33.101C1.09271 33.1042 1.09271 33.1074 1.09271 33.1106C1.09271 33.1138 1.09271 33.117 1.09271 33.1202C1.09271 33.1234 1.09271 33.1266 1.09271 33.1298C1.09271 33.1331 1.09271 33.1363 1.09271 33.1395C1.09271 33.1427 1.09271 33.1459 1.09271 33.1491C1.09271 33.1523 1.09271 33.1555 1.09271 33.1587C1.09271 33.1619 1.09271 33.1651 1.09271 33.1684C1.09271 33.1716 1.09271 33.1748 1.09271 33.178C1.09271 33.1812 1.09271 33.1844 1.09271 33.1876C1.09271 33.1908 1.09271 33.194 1.09271 33.1973C1.09271 33.2005 1.09271 33.2037 1.09271 33.2069C1.09271 33.2101 1.09271 33.2133 1.09271 33.2165C1.09271 33.2198 1.09271 33.223 1.09271 33.2262C1.09271 33.2294 1.09271 33.2326 1.09271 33.2358C1.09271 33.239 1.09271 33.2423 1.09271 33.2455C1.09271 33.2487 1.09271 33.2519 1.09271 33.2551C1.09271 33.2584 1.09271 33.2616 1.09271 33.2648C1.09271 33.268 1.09271 33.2712 1.09271 33.2744C1.09271 33.2777 1.09271 33.2809 1.09271 33.2841C1.09271 33.2873 1.09271 33.2905 1.09271 33.2938C1.09271 33.297 1.09271 33.3002 1.09271 33.3034C1.09271 33.3067 1.09271 33.3099 1.09271 33.3131C1.09271 33.3163 1.09271 33.3195 1.09271 33.3228C1.09271 33.326 1.09271 33.3292 1.09271 33.3324C1.09271 33.3357 1.09271 33.3389 1.09271 33.3421C1.09271 33.3453 1.09271 33.3486 1.09271 33.3518C1.09271 33.355 1.09271 33.3582 1.09271 33.3615C1.09271 33.3647 1.09271 33.3679 1.09271 33.3711C1.09271 33.3744 1.09271 33.3776 1.09271 33.3808C1.09271 33.3841 1.09271 33.3873 1.09271 33.3905C1.09271 33.3937 1.09271 33.397 1.09271 33.4002C1.09271 33.4034 1.09271 33.4067 1.09271 33.4099C1.09271 33.4131 1.09271 33.4163 1.09271 33.4196C1.09271 33.4228 1.09271 33.426 1.09271 33.4293C1.09271 33.4325 1.09271 33.4357 1.09271 33.439C1.09271 33.4422 1.09271 33.4454 1.09271 33.4487C1.09271 33.4519 1.09271 33.4551 1.09271 33.4584C1.09271 33.4616 1.09271 33.4648 1.09271 33.4681C1.09271 33.4713 1.09271 33.4745 1.09271 33.4778C1.09271 33.481 1.09271 33.4843 1.09271 33.4875C1.09271 33.4907 1.09271 33.494 1.09271 33.4972C1.09271 33.5004 1.09271 33.5037 1.09271 33.5069C1.09271 33.5102 1.09271 33.5134 1.09271 33.5166C1.09271 33.5199 1.09271 33.5231 1.09271 33.5263C1.09271 33.5296 1.09271 33.5328 1.09271 33.5361C1.09271 33.5393 1.09271 33.5425 1.09271 33.5458C1.09271 33.549 1.09271 33.5523 1.09271 33.5555C1.09271 33.5588 1.09271 33.562 1.09271 33.5652C1.09271 33.5685 1.09271 33.5717 1.09271 33.575C1.09271 33.5782 1.09271 33.5815 1.09271 33.5847C1.09271 33.5879 1.09271 33.5912 1.09271 33.5944C1.09271 33.5977 1.09271 33.6009 1.09271 33.6042C1.09271 33.6074 1.09271 33.6107 1.09271 33.6139C1.09271 33.6172 1.09271 33.6204 1.09271 33.6236C1.09271 33.6269 1.09271 33.6301 1.09271 33.6334C1.09271 33.6366 1.09271 33.6399 1.09271 33.6431C1.09271 33.6464 1.09271 33.6496 1.09271 33.6529C1.09271 33.6561 1.09271 33.6594 1.09271 33.6626C1.09271 33.6659 1.09271 33.6691 1.09271 33.6724C1.09271 33.6756 1.09271 33.6789 1.09271 33.6821C1.09271 33.6854 1.09271 33.6886 1.09271 33.6919C1.09271 33.6951 1.09271 33.6984 1.09271 33.7017C1.09271 33.7049 1.09271 33.7082 1.09271 33.7114C1.09271 33.7147 1.09271 33.7179 1.09271 33.7212C1.09271 33.7244 1.09271 33.7277 1.09271 33.7309C1.09271 33.7342 1.09271 33.7375 1.09271 33.7407C1.09271 33.744 1.09271 33.7472 1.09271 33.7505C1.09271 33.7537 1.09271 33.757 1.09271 33.7602C1.09271 33.7635 1.09271 33.7668 1.09271 33.77C1.09271 33.7733 1.09271 33.7765 1.09271 33.7798C1.09271 33.7831 1.09271 33.7863 1.09271 33.7896C1.09271 33.7928 1.09271 33.7961 1.09271 33.7994C1.09271 33.8026 1.09271 33.8059 1.09271 33.8091C1.09271 33.8124 1.09271 33.8157 1.09271 33.8189C1.09271 33.8222 1.09271 33.8254 1.09271 33.8287C1.09271 33.832 1.09271 33.8352 1.09271 33.8385C1.09271 33.8418 1.09271 33.845 1.09271 33.8483C1.09271 33.8516 1.09271 33.8548 1.09271 33.8581C1.09271 33.8614 1.09271 33.8646 1.09271 33.8679C1.09271 33.8711 1.09271 33.8744 1.09271 33.8777C1.09271 33.8809 1.09271 33.8842 1.09271 33.8875C1.09271 33.8907 1.09271 33.894 1.09271 33.8973C1.09271 33.9006 1.09271 33.9038 1.09271 33.9071C1.09271 33.9104 1.09271 33.9136 1.09271 33.9169C1.09271 33.9202 1.09271 33.9234 1.09271 33.9267C1.09271 33.93 1.09271 33.9332 1.09271 33.9365C1.09271 33.9398 1.09271 33.9431 1.09271 33.9463C1.09271 33.9496 1.09271 33.9529 1.09271 33.9561C1.09271 33.9594 1.09271 33.9627 1.09271 33.966C1.09271 33.9692 1.09271 33.9725 1.09271 33.9758C1.09271 33.9791 1.09271 33.9823 1.09271 33.9856C1.09271 33.9889 1.09271 33.9922 1.09271 33.9954C1.09271 33.9987 1.09271 34.002 1.09271 34.0053C1.09271 34.0085 1.09271 34.0118 1.09271 34.0151C1.09271 34.0184 1.09271 34.0216 1.09271 34.0249C1.09271 34.0282 1.09271 34.0315 1.09271 34.0347C1.09271 34.038 1.09271 34.0413 1.09271 34.0446C1.09271 34.0479 1.09271 34.0511 1.09271 34.0544C1.09271 34.0577 1.09271 34.061 1.09271 34.0643C1.09271 34.0675 1.09271 34.0708 1.09271 34.0741C1.09271 34.0774 1.09271 34.0807 1.09271 34.0839C1.09271 34.0872 1.09271 34.0905 1.09271 34.0938C1.09271 34.0971 1.09271 34.1004 1.09271 34.1036C1.09271 34.1069 1.09271 34.1102 1.09271 34.1135C1.09271 34.1168 1.09271 34.1201 1.09271 34.1233C1.09271 34.1266 1.09271 34.1299 1.09271 34.1332C1.09271 34.1365 1.09271 34.1398 1.09271 34.143C1.09271 34.1463 1.09271 34.1496 1.09271 34.1529C1.09271 34.1562 1.09271 34.1595 1.09271 34.1628C1.09271 34.1661 1.09271 34.1693 1.09271 34.1726C1.09271 34.1759 1.09271 34.1792 1.09271 34.1825C1.09271 34.1858 1.09271 34.1891 1.09271 34.1924C1.09271 34.1956 1.09271 34.1989 1.09271 34.2022C1.09271 34.2055 1.09271 34.2088 1.09271 34.2121C1.09271 34.2154 1.09271 34.2187 1.09271 34.222C1.09271 34.2253 1.09271 34.2286 1.09271 34.2318C1.09271 34.2351 1.09271 34.2384 1.09271 34.2417C1.09271 34.245 1.09271 34.2483 1.09271 34.2516C1.09271 34.2549 1.09271 34.2582 1.09271 34.2615C1.09271 34.2648 1.09271 34.2681 1.09271 34.2714C1.09271 34.2747 1.09271 34.278 1.09271 34.2813C1.09271 34.2845 1.09271 34.2878 1.09271 34.2911C1.09271 34.2944 1.09271 34.2977 1.09271 34.301C1.09271 34.3043 1.09271 34.3076 1.09271 34.3109C1.09271 34.3142 1.09271 34.3175 1.09271 34.3208C1.09271 34.3241 1.09271 34.3274 1.09271 34.3307C1.09271 34.334 1.09271 34.3373 1.09271 34.3406C1.09271 34.3439 1.09271 34.3472 1.09271 34.3505C1.09271 34.3538 1.09271 34.3571 1.09271 34.3604C1.09271 34.3637 1.09271 34.367 1.09271 34.3703C1.09271 34.3736 1.09271 34.3769 1.09271 34.3802C1.09271 34.3835 1.09271 34.3868 1.09271 34.3901C1.09271 34.3934 1.09271 34.3967 1.09271 34.4C1.09271 34.4033 1.09271 34.4066 1.09271 34.4099C1.09271 34.4132 1.09271 34.4166 1.09271 34.4199C1.09271 34.4232 1.09271 34.4265 1.09271 34.4298C1.09271 34.4331 1.09271 34.4364 1.09271 34.4397C1.09271 34.443 1.09271 34.4463 1.09271 34.4496C1.09271 34.4529 1.09271 34.4562 1.09271 34.4595C1.09271 34.4628 1.09271 34.4661 1.09271 34.4695C1.09271 34.4728 1.09271 34.4761 1.09271 34.4794C1.09271 34.4827 1.09271 34.486 1.09271 34.4893C1.09271 34.4926 1.09271 34.4959 1.09271 34.4992C1.09271 34.5025 1.09271 34.5059 1.09271 34.5092C1.09271 34.5125 1.09271 34.5158 1.09271 34.5191C1.09271 34.5224 1.09271 34.5257 1.09271 34.529C1.09271 34.5324 1.09271 34.5357 1.09271 34.539C1.09271 34.5423 1.09271 34.5456 1.09271 34.5489C1.09271 34.5522 1.09271 34.5555 1.09271 34.5589C1.09271 34.5622 1.09271 34.5655 1.09271 34.5688C1.09271 34.5721 1.09271 34.5754 1.09271 34.5787C1.09271 34.5821 1.09271 34.5854 1.09271 34.5887C1.09271 34.592 1.09271 34.5953 1.09271 34.5986C1.09271 34.602 1.09271 34.6053 1.09271 34.6086C1.09271 34.6119 1.09271 34.6152 1.09271 34.6185C1.09271 34.6219 1.09271 34.6252 1.09271 34.6285C1.09271 34.6318 1.09271 34.6351 1.09271 34.6385C1.09271 34.6418 1.09271 34.6451 1.09271 34.6484C1.09271 34.6517 1.09271 34.6551 1.09271 34.6584C1.09271 34.6617 1.09271 34.665 1.09271 34.6683C1.09271 34.6717 1.09271 34.675 1.09271 34.6783C1.09271 34.6816 1.09271 34.685 1.09271 34.6883C1.09271 34.6916 1.09271 34.6949 1.09271 34.6982C1.09271 34.7016 1.09271 34.7049 1.09271 34.7082C1.09271 34.7115 1.09271 34.7149 1.09271 34.7182C1.09271 34.7215 1.09271 34.7248 1.09271 34.7282C1.09271 34.7315 1.09271 34.7348 1.09271 34.7381C1.09271 34.7415 1.09271 34.7448 1.09271 34.7481C1.09271 34.7514 1.09271 34.7548 1.09271 34.7581C1.09271 34.7614 1.09271 34.7648 1.09271 34.7681C1.09271 34.7714 1.09271 34.7747 1.09271 34.7781H2.09271ZM8.6135 23.2859H17.9746V22.2859H8.6135V23.2859ZM24.4953 29.9847C24.4953 29.9875 24.4953 29.9904 24.4953 29.9933C24.4953 29.9961 24.4953 29.999 24.4953 30.0019C24.4953 30.0047 24.4953 30.0076 24.4953 30.0105C24.4953 30.0134 24.4953 30.0162 24.4953 30.0191C24.4953 30.022 24.4953 30.0248 24.4953 30.0277C24.4953 30.0306 24.4953 30.0335 24.4953 30.0363C24.4953 30.0392 24.4953 30.0421 24.4953 30.045C24.4953 30.0478 24.4953 30.0507 24.4953 30.0536C24.4953 30.0565 24.4953 30.0593 24.4953 30.0622C24.4953 30.0651 24.4953 30.068 24.4953 30.0709C24.4953 30.0737 24.4953 30.0766 24.4953 30.0795C24.4953 30.0824 24.4953 30.0853 24.4953 30.0881C24.4953 30.091 24.4953 30.0939 24.4953 30.0968C24.4953 30.0997 24.4953 30.1025 24.4953 30.1054C24.4953 30.1083 24.4953 30.1112 24.4953 30.1141C24.4953 30.117 24.4953 30.1199 24.4953 30.1227C24.4953 30.1256 24.4953 30.1285 24.4953 30.1314C24.4953 30.1343 24.4953 30.1372 24.4953 30.1401C24.4953 30.143 24.4953 30.1458 24.4953 30.1487C24.4953 30.1516 24.4953 30.1545 24.4953 30.1574C24.4953 30.1603 24.4953 30.1632 24.4953 30.1661C24.4953 30.169 24.4953 30.1719 24.4953 30.1747C24.4953 30.1776 24.4953 30.1805 24.4953 30.1834C24.4953 30.1863 24.4953 30.1892 24.4953 30.1921C24.4953 30.195 24.4953 30.1979 24.4953 30.2008C24.4953 30.2037 24.4953 30.2066 24.4953 30.2095C24.4953 30.2124 24.4953 30.2153 24.4953 30.2182C24.4953 30.2211 24.4953 30.224 24.4953 30.2269C24.4953 30.2298 24.4953 30.2327 24.4953 30.2356C24.4953 30.2385 24.4953 30.2414 24.4953 30.2443C24.4953 30.2472 24.4953 30.2501 24.4953 30.253C24.4953 30.2559 24.4953 30.2588 24.4953 30.2617C24.4953 30.2646 24.4953 30.2675 24.4953 30.2704C24.4953 30.2733 24.4953 30.2762 24.4953 30.2791C24.4953 30.282 24.4953 30.285 24.4953 30.2879C24.4953 30.2908 24.4953 30.2937 24.4953 30.2966C24.4953 30.2995 24.4953 30.3024 24.4953 30.3053C24.4953 30.3082 24.4953 30.3111 24.4953 30.314C24.4953 30.317 24.4953 30.3199 24.4953 30.3228C24.4953 30.3257 24.4953 30.3286 24.4953 30.3315C24.4953 30.3344 24.4953 30.3373 24.4953 30.3403C24.4953 30.3432 24.4953 30.3461 24.4953 30.349C24.4953 30.3519 24.4953 30.3548 24.4953 30.3577C24.4953 30.3607 24.4953 30.3636 24.4953 30.3665C24.4953 30.3694 24.4953 30.3723 24.4953 30.3753C24.4953 30.3782 24.4953 30.3811 24.4953 30.384C24.4953 30.3869 24.4953 30.3899 24.4953 30.3928C24.4953 30.3957 24.4953 30.3986 24.4953 30.4015C24.4953 30.4045 24.4953 30.4074 24.4953 30.4103C24.4953 30.4132 24.4953 30.4162 24.4953 30.4191C24.4953 30.422 24.4953 30.4249 24.4953 30.4279C24.4953 30.4308 24.4953 30.4337 24.4953 30.4366C24.4953 30.4396 24.4953 30.4425 24.4953 30.4454C24.4953 30.4483 24.4953 30.4513 24.4953 30.4542C24.4953 30.4571 24.4953 30.4601 24.4953 30.463C24.4953 30.4659 24.4953 30.4689 24.4953 30.4718C24.4953 30.4747 24.4953 30.4776 24.4953 30.4806C24.4953 30.4835 24.4953 30.4864 24.4953 30.4894C24.4953 30.4923 24.4953 30.4952 24.4953 30.4982C24.4953 30.5011 24.4953 30.504 24.4953 30.507C24.4953 30.5099 24.4953 30.5129 24.4953 30.5158C24.4953 30.5187 24.4953 30.5217 24.4953 30.5246C24.4953 30.5275 24.4953 30.5305 24.4953 30.5334C24.4953 30.5364 24.4953 30.5393 24.4953 30.5422C24.4953 30.5452 24.4953 30.5481 24.4953 30.5511C24.4953 30.554 24.4953 30.5569 24.4953 30.5599C24.4953 30.5628 24.4953 30.5658 24.4953 30.5687C24.4953 30.5717 24.4953 30.5746 24.4953 30.5775C24.4953 30.5805 24.4953 30.5834 24.4953 30.5864C24.4953 30.5893 24.4953 30.5923 24.4953 30.5952C24.4953 30.5982 24.4953 30.6011 24.4953 30.6041C24.4953 30.607 24.4953 30.61 24.4953 30.6129C24.4953 30.6159 24.4953 30.6188 24.4953 30.6218C24.4953 30.6247 24.4953 30.6277 24.4953 30.6306C24.4953 30.6336 24.4953 30.6365 24.4953 30.6395C24.4953 30.6424 24.4953 30.6454 24.4953 30.6483C24.4953 30.6513 24.4953 30.6542 24.4953 30.6572C24.4953 30.6601 24.4953 30.6631 24.4953 30.666C24.4953 30.669 24.4953 30.672 24.4953 30.6749C24.4953 30.6779 24.4953 30.6808 24.4953 30.6838C24.4953 30.6867 24.4953 30.6897 24.4953 30.6927C24.4953 30.6956 24.4953 30.6986 24.4953 30.7015C24.4953 30.7045 24.4953 30.7074 24.4953 30.7104C24.4953 30.7134 24.4953 30.7163 24.4953 30.7193C24.4953 30.7223 24.4953 30.7252 24.4953 30.7282C24.4953 30.7311 24.4953 30.7341 24.4953 30.7371C24.4953 30.74 24.4953 30.743 24.4953 30.746C24.4953 30.7489 24.4953 30.7519 24.4953 30.7549C24.4953 30.7578 24.4953 30.7608 24.4953 30.7638C24.4953 30.7667 24.4953 30.7697 24.4953 30.7727C24.4953 30.7756 24.4953 30.7786 24.4953 30.7816C24.4953 30.7845 24.4953 30.7875 24.4953 30.7905C24.4953 30.7935 24.4953 30.7964 24.4953 30.7994C24.4953 30.8024 24.4953 30.8053 24.4953 30.8083C24.4953 30.8113 24.4953 30.8143 24.4953 30.8172C24.4953 30.8202 24.4953 30.8232 24.4953 30.8262C24.4953 30.8291 24.4953 30.8321 24.4953 30.8351C24.4953 30.8381 24.4953 30.841 24.4953 30.844C24.4953 30.847 24.4953 30.85 24.4953 30.8529C24.4953 30.8559 24.4953 30.8589 24.4953 30.8619C24.4953 30.8649 24.4953 30.8678 24.4953 30.8708C24.4953 30.8738 24.4953 30.8768 24.4953 30.8798C24.4953 30.8827 24.4953 30.8857 24.4953 30.8887C24.4953 30.8917 24.4953 30.8947 24.4953 30.8976C24.4953 30.9006 24.4953 30.9036 24.4953 30.9066C24.4953 30.9096 24.4953 30.9126 24.4953 30.9156C24.4953 30.9185 24.4953 30.9215 24.4953 30.9245C24.4953 30.9275 24.4953 30.9305 24.4953 30.9335C24.4953 30.9365 24.4953 30.9394 24.4953 30.9424C24.4953 30.9454 24.4953 30.9484 24.4953 30.9514C24.4953 30.9544 24.4953 30.9574 24.4953 30.9604C24.4953 30.9634 24.4953 30.9664 24.4953 30.9693C24.4953 30.9723 24.4953 30.9753 24.4953 30.9783C24.4953 30.9813 24.4953 30.9843 24.4953 30.9873C24.4953 30.9903 24.4953 30.9933 24.4953 30.9963C24.4953 30.9993 24.4953 31.0023 24.4953 31.0053C24.4953 31.0083 24.4953 31.0113 24.4953 31.0143C24.4953 31.0173 24.4953 31.0203 24.4953 31.0233C24.4953 31.0262 24.4953 31.0292 24.4953 31.0322C24.4953 31.0352 24.4953 31.0382 24.4953 31.0412C24.4953 31.0442 24.4953 31.0472 24.4953 31.0502C24.4953 31.0532 24.4953 31.0562 24.4953 31.0593C24.4953 31.0623 24.4953 31.0653 24.4953 31.0683C24.4953 31.0713 24.4953 31.0743 24.4953 31.0773C24.4953 31.0803 24.4953 31.0833 24.4953 31.0863C24.4953 31.0893 24.4953 31.0923 24.4953 31.0953C24.4953 31.0983 24.4953 31.1013 24.4953 31.1043C24.4953 31.1073 24.4953 31.1103 24.4953 31.1133C24.4953 31.1164 24.4953 31.1194 24.4953 31.1224C24.4953 31.1254 24.4953 31.1284 24.4953 31.1314C24.4953 31.1344 24.4953 31.1374 24.4953 31.1404C24.4953 31.1434 24.4953 31.1465 24.4953 31.1495C24.4953 31.1525 24.4953 31.1555 24.4953 31.1585C24.4953 31.1615 24.4953 31.1645 24.4953 31.1676C24.4953 31.1706 24.4953 31.1736 24.4953 31.1766C24.4953 31.1796 24.4953 31.1826 24.4953 31.1856C24.4953 31.1887 24.4953 31.1917 24.4953 31.1947C24.4953 31.1977 24.4953 31.2007 24.4953 31.2038C24.4953 31.2068 24.4953 31.2098 24.4953 31.2128C24.4953 31.2158 24.4953 31.2188 24.4953 31.2219C24.4953 31.2249 24.4953 31.2279 24.4953 31.2309C24.4953 31.234 24.4953 31.237 24.4953 31.24C24.4953 31.243 24.4953 31.246 24.4953 31.2491C24.4953 31.2521 24.4953 31.2551 24.4953 31.2581C24.4953 31.2612 24.4953 31.2642 24.4953 31.2672C24.4953 31.2702 24.4953 31.2733 24.4953 31.2763C24.4953 31.2793 24.4953 31.2823 24.4953 31.2854C24.4953 31.2884 24.4953 31.2914 24.4953 31.2945C24.4953 31.2975 24.4953 31.3005 24.4953 31.3035C24.4953 31.3066 24.4953 31.3096 24.4953 31.3126C24.4953 31.3157 24.4953 31.3187 24.4953 31.3217C24.4953 31.3248 24.4953 31.3278 24.4953 31.3308C24.4953 31.3339 24.4953 31.3369 24.4953 31.3399C24.4953 31.343 24.4953 31.346 24.4953 31.349C24.4953 31.3521 24.4953 31.3551 24.4953 31.3581C24.4953 31.3612 24.4953 31.3642 24.4953 31.3673C24.4953 31.3703 24.4953 31.3733 24.4953 31.3764C24.4953 31.3794 24.4953 31.3824 24.4953 31.3855C24.4953 31.3885 24.4953 31.3916 24.4953 31.3946C24.4953 31.3976 24.4953 31.4007 24.4953 31.4037C24.4953 31.4068 24.4953 31.4098 24.4953 31.4128C24.4953 31.4159 24.4953 31.4189 24.4953 31.422C24.4953 31.425 24.4953 31.4281 24.4953 31.4311C24.4953 31.4341 24.4953 31.4372 24.4953 31.4402C24.4953 31.4433 24.4953 31.4463 24.4953 31.4494C24.4953 31.4524 24.4953 31.4555 24.4953 31.4585C24.4953 31.4616 24.4953 31.4646 24.4953 31.4676C24.4953 31.4707 24.4953 31.4737 24.4953 31.4768C24.4953 31.4798 24.4953 31.4829 24.4953 31.4859C24.4953 31.489 24.4953 31.492 24.4953 31.4951C24.4953 31.4981 24.4953 31.5012 24.4953 31.5042C24.4953 31.5073 24.4953 31.5104 24.4953 31.5134C24.4953 31.5165 24.4953 31.5195 24.4953 31.5226C24.4953 31.5256 24.4953 31.5287 24.4953 31.5317C24.4953 31.5348 24.4953 31.5378 24.4953 31.5409C24.4953 31.5439 24.4953 31.547 24.4953 31.5501C24.4953 31.5531 24.4953 31.5562 24.4953 31.5592C24.4953 31.5623 24.4953 31.5653 24.4953 31.5684C24.4953 31.5715 24.4953 31.5745 24.4953 31.5776C24.4953 31.5806 24.4953 31.5837 24.4953 31.5868C24.4953 31.5898 24.4953 31.5929 24.4953 31.5959C24.4953 31.599 24.4953 31.6021 24.4953 31.6051C24.4953 31.6082 24.4953 31.6113 24.4953 31.6143C24.4953 31.6174 24.4953 31.6205 24.4953 31.6235C24.4953 31.6266 24.4953 31.6296 24.4953 31.6327C24.4953 31.6358 24.4953 31.6388 24.4953 31.6419C24.4953 31.645 24.4953 31.648 24.4953 31.6511C24.4953 31.6542 24.4953 31.6572 24.4953 31.6603C24.4953 31.6634 24.4953 31.6665 24.4953 31.6695C24.4953 31.6726 24.4953 31.6757 24.4953 31.6787C24.4953 31.6818 24.4953 31.6849 24.4953 31.6879C24.4953 31.691 24.4953 31.6941 24.4953 31.6972C24.4953 31.7002 24.4953 31.7033 24.4953 31.7064C24.4953 31.7095 24.4953 31.7125 24.4953 31.7156C24.4953 31.7187 24.4953 31.7218 24.4953 31.7248C24.4953 31.7279 24.4953 31.731 24.4953 31.7341C24.4953 31.7371 24.4953 31.7402 24.4953 31.7433C24.4953 31.7464 24.4953 31.7494 24.4953 31.7525C24.4953 31.7556 24.4953 31.7587 24.4953 31.7618C24.4953 31.7648 24.4953 31.7679 24.4953 31.771C24.4953 31.7741 24.4953 31.7772 24.4953 31.7802C24.4953 31.7833 24.4953 31.7864 24.4953 31.7895C24.4953 31.7926 24.4953 31.7956 24.4953 31.7987C24.4953 31.8018 24.4953 31.8049 24.4953 31.808C24.4953 31.8111 24.4953 31.8141 24.4953 31.8172C24.4953 31.8203 24.4953 31.8234 24.4953 31.8265C24.4953 31.8296 24.4953 31.8327 24.4953 31.8357C24.4953 31.8388 24.4953 31.8419 24.4953 31.845C24.4953 31.8481 24.4953 31.8512 24.4953 31.8543C24.4953 31.8574 24.4953 31.8604 24.4953 31.8635C24.4953 31.8666 24.4953 31.8697 24.4953 31.8728C24.4953 31.8759 24.4953 31.879 24.4953 31.8821C24.4953 31.8852 24.4953 31.8883 24.4953 31.8914C24.4953 31.8944 24.4953 31.8975 24.4953 31.9006C24.4953 31.9037 24.4953 31.9068 24.4953 31.9099C24.4953 31.913 24.4953 31.9161 24.4953 31.9192C24.4953 31.9223 24.4953 31.9254 24.4953 31.9285C24.4953 31.9316 24.4953 31.9347 24.4953 31.9378C24.4953 31.9409 24.4953 31.944 24.4953 31.9471C24.4953 31.9502 24.4953 31.9533 24.4953 31.9564C24.4953 31.9595 24.4953 31.9626 24.4953 31.9657C24.4953 31.9688 24.4953 31.9719 24.4953 31.975C24.4953 31.9781 24.4953 31.9812 24.4953 31.9843C24.4953 31.9874 24.4953 31.9905 24.4953 31.9936C24.4953 31.9967 24.4953 31.9998 24.4953 32.0029C24.4953 32.006 24.4953 32.0091 24.4953 32.0122C24.4953 32.0153 24.4953 32.0184 24.4953 32.0215C24.4953 32.0246 24.4953 32.0277 24.4953 32.0308C24.4953 32.0339 24.4953 32.037 24.4953 32.0402C24.4953 32.0433 24.4953 32.0464 24.4953 32.0495C24.4953 32.0526 24.4953 32.0557 24.4953 32.0588C24.4953 32.0619 24.4953 32.065 24.4953 32.0681C24.4953 32.0712 24.4953 32.0744 24.4953 32.0775C24.4953 32.0806 24.4953 32.0837 24.4953 32.0868C24.4953 32.0899 24.4953 32.093 24.4953 32.0961C24.4953 32.0993 24.4953 32.1024 24.4953 32.1055C24.4953 32.1086 24.4953 32.1117 24.4953 32.1148C24.4953 32.1179 24.4953 32.1211 24.4953 32.1242C24.4953 32.1273 24.4953 32.1304 24.4953 32.1335C24.4953 32.1366 24.4953 32.1398 24.4953 32.1429C24.4953 32.146 24.4953 32.1491 24.4953 32.1522C24.4953 32.1553 24.4953 32.1585 24.4953 32.1616C24.4953 32.1647 24.4953 32.1678 24.4953 32.1709C24.4953 32.1741 24.4953 32.1772 24.4953 32.1803C24.4953 32.1834 24.4953 32.1865 24.4953 32.1897C24.4953 32.1928 24.4953 32.1959 24.4953 32.199C24.4953 32.2022 24.4953 32.2053 24.4953 32.2084C24.4953 32.2115 24.4953 32.2147 24.4953 32.2178C24.4953 32.2209 24.4953 32.224 24.4953 32.2272C24.4953 32.2303 24.4953 32.2334 24.4953 32.2365C24.4953 32.2397 24.4953 32.2428 24.4953 32.2459C24.4953 32.249 24.4953 32.2522 24.4953 32.2553C24.4953 32.2584 24.4953 32.2616 24.4953 32.2647C24.4953 32.2678 24.4953 32.2709 24.4953 32.2741C24.4953 32.2772 24.4953 32.2803 24.4953 32.2835C24.4953 32.2866 24.4953 32.2897 24.4953 32.2929C24.4953 32.296 24.4953 32.2991 24.4953 32.3023C24.4953 32.3054 24.4953 32.3085 24.4953 32.3117C24.4953 32.3148 24.4953 32.3179 24.4953 32.3211C24.4953 32.3242 24.4953 32.3273 24.4953 32.3305C24.4953 32.3336 24.4953 32.3367 24.4953 32.3399C24.4953 32.343 24.4953 32.3462 24.4953 32.3493C24.4953 32.3524 24.4953 32.3556 24.4953 32.3587C24.4953 32.3618 24.4953 32.365 24.4953 32.3681C24.4953 32.3713 24.4953 32.3744 24.4953 32.3775C24.4953 32.3807 24.4953 32.3838 24.4953 32.387C24.4953 32.3901 24.4953 32.3932 24.4953 32.3964C24.4953 32.3995 24.4953 32.4027 24.4953 32.4058C24.4953 32.409 24.4953 32.4121 24.4953 32.4152C24.4953 32.4184 24.4953 32.4215 24.4953 32.4247C24.4953 32.4278 24.4953 32.431 24.4953 32.4341C24.4953 32.4373 24.4953 32.4404 24.4953 32.4435C24.4953 32.4467 24.4953 32.4498 24.4953 32.453C24.4953 32.4561 24.4953 32.4593 24.4953 32.4624C24.4953 32.4656 24.4953 32.4687 24.4953 32.4719C24.4953 32.475 24.4953 32.4782 24.4953 32.4813C24.4953 32.4845 24.4953 32.4876 24.4953 32.4908C24.4953 32.4939 24.4953 32.4971 24.4953 32.5002C24.4953 32.5034 24.4953 32.5065 24.4953 32.5097C24.4953 32.5128 24.4953 32.516 24.4953 32.5191C24.4953 32.5223 24.4953 32.5255 24.4953 32.5286C24.4953 32.5318 24.4953 32.5349 24.4953 32.5381C24.4953 32.5412 24.4953 32.5444 24.4953 32.5475C24.4953 32.5507 24.4953 32.5539 24.4953 32.557C24.4953 32.5602 24.4953 32.5633 24.4953 32.5665C24.4953 32.5696 24.4953 32.5728 24.4953 32.576C24.4953 32.5791 24.4953 32.5823 24.4953 32.5854C24.4953 32.5886 24.4953 32.5918 24.4953 32.5949C24.4953 32.5981 24.4953 32.6012 24.4953 32.6044C24.4953 32.6076 24.4953 32.6107 24.4953 32.6139C24.4953 32.617 24.4953 32.6202 24.4953 32.6234C24.4953 32.6265 24.4953 32.6297 24.4953 32.6329C24.4953 32.636 24.4953 32.6392 24.4953 32.6424C24.4953 32.6455 24.4953 32.6487 24.4953 32.6518C24.4953 32.655 24.4953 32.6582 24.4953 32.6613C24.4953 32.6645 24.4953 32.6677 24.4953 32.6708C24.4953 32.674 24.4953 32.6772 24.4953 32.6803C24.4953 32.6835 24.4953 32.6867 24.4953 32.6899C24.4953 32.693 24.4953 32.6962 24.4953 32.6994C24.4953 32.7025 24.4953 32.7057 24.4953 32.7089C24.4953 32.712 24.4953 32.7152 24.4953 32.7184C24.4953 32.7216 24.4953 32.7247 24.4953 32.7279C24.4953 32.7311 24.4953 32.7342 24.4953 32.7374C24.4953 32.7406 24.4953 32.7438 24.4953 32.7469C24.4953 32.7501 24.4953 32.7533 24.4953 32.7565C24.4953 32.7596 24.4953 32.7628 24.4953 32.766C24.4953 32.7692 24.4953 32.7723 24.4953 32.7755C24.4953 32.7787 24.4953 32.7819 24.4953 32.7851C24.4953 32.7882 24.4953 32.7914 24.4953 32.7946C24.4953 32.7978 24.4953 32.8009 24.4953 32.8041C24.4953 32.8073 24.4953 32.8105 24.4953 32.8137C24.4953 32.8168 24.4953 32.82 24.4953 32.8232C24.4953 32.8264 24.4953 32.8296 24.4953 32.8327C24.4953 32.8359 24.4953 32.8391 24.4953 32.8423C24.4953 32.8455 24.4953 32.8487 24.4953 32.8518C24.4953 32.855 24.4953 32.8582 24.4953 32.8614C24.4953 32.8646 24.4953 32.8678 24.4953 32.8709C24.4953 32.8741 24.4953 32.8773 24.4953 32.8805C24.4953 32.8837 24.4953 32.8869 24.4953 32.8901C24.4953 32.8933 24.4953 32.8964 24.4953 32.8996C24.4953 32.9028 24.4953 32.906 24.4953 32.9092C24.4953 32.9124 24.4953 32.9156 24.4953 32.9188C24.4953 32.9219 24.4953 32.9251 24.4953 32.9283C24.4953 32.9315 24.4953 32.9347 24.4953 32.9379C24.4953 32.9411 24.4953 32.9443 24.4953 32.9475C24.4953 32.9507 24.4953 32.9539 24.4953 32.957C24.4953 32.9602 24.4953 32.9634 24.4953 32.9666C24.4953 32.9698 24.4953 32.973 24.4953 32.9762C24.4953 32.9794 24.4953 32.9826 24.4953 32.9858C24.4953 32.989 24.4953 32.9922 24.4953 32.9954C24.4953 32.9986 24.4953 33.0018 24.4953 33.005C24.4953 33.0082 24.4953 33.0114 24.4953 33.0146C24.4953 33.0178 24.4953 33.021 24.4953 33.0242C24.4953 33.0273 24.4953 33.0305 24.4953 33.0337C24.4953 33.0369 24.4953 33.0401 24.4953 33.0433C24.4953 33.0465 24.4953 33.0497 24.4953 33.0529C24.4953 33.0561 24.4953 33.0593 24.4953 33.0626C24.4953 33.0658 24.4953 33.069 24.4953 33.0722C24.4953 33.0754 24.4953 33.0786 24.4953 33.0818C24.4953 33.085 24.4953 33.0882 24.4953 33.0914C24.4953 33.0946 24.4953 33.0978 24.4953 33.101C24.4953 33.1042 24.4953 33.1074 24.4953 33.1106C24.4953 33.1138 24.4953 33.117 24.4953 33.1202C24.4953 33.1234 24.4953 33.1266 24.4953 33.1298C24.4953 33.1331 24.4953 33.1363 24.4953 33.1395C24.4953 33.1427 24.4953 33.1459 24.4953 33.1491C24.4953 33.1523 24.4953 33.1555 24.4953 33.1587C24.4953 33.1619 24.4953 33.1651 24.4953 33.1684C24.4953 33.1716 24.4953 33.1748 24.4953 33.178C24.4953 33.1812 24.4953 33.1844 24.4953 33.1876C24.4953 33.1908 24.4953 33.194 24.4953 33.1973C24.4953 33.2005 24.4953 33.2037 24.4953 33.2069C24.4953 33.2101 24.4953 33.2133 24.4953 33.2165C24.4953 33.2198 24.4953 33.223 24.4953 33.2262C24.4953 33.2294 24.4953 33.2326 24.4953 33.2358C24.4953 33.239 24.4953 33.2423 24.4953 33.2455C24.4953 33.2487 24.4953 33.2519 24.4953 33.2551C24.4953 33.2584 24.4953 33.2616 24.4953 33.2648C24.4953 33.268 24.4953 33.2712 24.4953 33.2744C24.4953 33.2777 24.4953 33.2809 24.4953 33.2841C24.4953 33.2873 24.4953 33.2905 24.4953 33.2938C24.4953 33.297 24.4953 33.3002 24.4953 33.3034C24.4953 33.3067 24.4953 33.3099 24.4953 33.3131C24.4953 33.3163 24.4953 33.3195 24.4953 33.3228C24.4953 33.326 24.4953 33.3292 24.4953 33.3324C24.4953 33.3357 24.4953 33.3389 24.4953 33.3421C24.4953 33.3453 24.4953 33.3486 24.4953 33.3518C24.4953 33.355 24.4953 33.3582 24.4953 33.3615C24.4953 33.3647 24.4953 33.3679 24.4953 33.3711C24.4953 33.3744 24.4953 33.3776 24.4953 33.3808C24.4953 33.3841 24.4953 33.3873 24.4953 33.3905C24.4953 33.3937 24.4953 33.397 24.4953 33.4002C24.4953 33.4034 24.4953 33.4067 24.4953 33.4099C24.4953 33.4131 24.4953 33.4163 24.4953 33.4196C24.4953 33.4228 24.4953 33.426 24.4953 33.4293C24.4953 33.4325 24.4953 33.4357 24.4953 33.439C24.4953 33.4422 24.4953 33.4454 24.4953 33.4487C24.4953 33.4519 24.4953 33.4551 24.4953 33.4584C24.4953 33.4616 24.4953 33.4648 24.4953 33.4681C24.4953 33.4713 24.4953 33.4745 24.4953 33.4778C24.4953 33.481 24.4953 33.4843 24.4953 33.4875C24.4953 33.4907 24.4953 33.494 24.4953 33.4972C24.4953 33.5004 24.4953 33.5037 24.4953 33.5069C24.4953 33.5102 24.4953 33.5134 24.4953 33.5166C24.4953 33.5199 24.4953 33.5231 24.4953 33.5263C24.4953 33.5296 24.4953 33.5328 24.4953 33.5361C24.4953 33.5393 24.4953 33.5425 24.4953 33.5458C24.4953 33.549 24.4953 33.5523 24.4953 33.5555C24.4953 33.5588 24.4953 33.562 24.4953 33.5652C24.4953 33.5685 24.4953 33.5717 24.4953 33.575C24.4953 33.5782 24.4953 33.5815 24.4953 33.5847C24.4953 33.5879 24.4953 33.5912 24.4953 33.5944C24.4953 33.5977 24.4953 33.6009 24.4953 33.6042C24.4953 33.6074 24.4953 33.6107 24.4953 33.6139C24.4953 33.6172 24.4953 33.6204 24.4953 33.6236C24.4953 33.6269 24.4953 33.6301 24.4953 33.6334C24.4953 33.6366 24.4953 33.6399 24.4953 33.6431C24.4953 33.6464 24.4953 33.6496 24.4953 33.6529C24.4953 33.6561 24.4953 33.6594 24.4953 33.6626C24.4953 33.6659 24.4953 33.6691 24.4953 33.6724C24.4953 33.6756 24.4953 33.6789 24.4953 33.6821C24.4953 33.6854 24.4953 33.6886 24.4953 33.6919C24.4953 33.6951 24.4953 33.6984 24.4953 33.7017C24.4953 33.7049 24.4953 33.7082 24.4953 33.7114C24.4953 33.7147 24.4953 33.7179 24.4953 33.7212C24.4953 33.7244 24.4953 33.7277 24.4953 33.7309C24.4953 33.7342 24.4953 33.7375 24.4953 33.7407C24.4953 33.744 24.4953 33.7472 24.4953 33.7505C24.4953 33.7537 24.4953 33.757 24.4953 33.7602C24.4953 33.7635 24.4953 33.7668 24.4953 33.77C24.4953 33.7733 24.4953 33.7765 24.4953 33.7798C24.4953 33.7831 24.4953 33.7863 24.4953 33.7896C24.4953 33.7928 24.4953 33.7961 24.4953 33.7994C24.4953 33.8026 24.4953 33.8059 24.4953 33.8091C24.4953 33.8124 24.4953 33.8157 24.4953 33.8189C24.4953 33.8222 24.4953 33.8254 24.4953 33.8287C24.4953 33.832 24.4953 33.8352 24.4953 33.8385C24.4953 33.8418 24.4953 33.845 24.4953 33.8483C24.4953 33.8516 24.4953 33.8548 24.4953 33.8581C24.4953 33.8614 24.4953 33.8646 24.4953 33.8679C24.4953 33.8711 24.4953 33.8744 24.4953 33.8777C24.4953 33.8809 24.4953 33.8842 24.4953 33.8875C24.4953 33.8907 24.4953 33.894 24.4953 33.8973C24.4953 33.9006 24.4953 33.9038 24.4953 33.9071C24.4953 33.9104 24.4953 33.9136 24.4953 33.9169C24.4953 33.9202 24.4953 33.9234 24.4953 33.9267C24.4953 33.93 24.4953 33.9332 24.4953 33.9365C24.4953 33.9398 24.4953 33.9431 24.4953 33.9463C24.4953 33.9496 24.4953 33.9529 24.4953 33.9561C24.4953 33.9594 24.4953 33.9627 24.4953 33.966C24.4953 33.9692 24.4953 33.9725 24.4953 33.9758C24.4953 33.9791 24.4953 33.9823 24.4953 33.9856C24.4953 33.9889 24.4953 33.9922 24.4953 33.9954C24.4953 33.9987 24.4953 34.002 24.4953 34.0053C24.4953 34.0085 24.4953 34.0118 24.4953 34.0151C24.4953 34.0184 24.4953 34.0216 24.4953 34.0249C24.4953 34.0282 24.4953 34.0315 24.4953 34.0347C24.4953 34.038 24.4953 34.0413 24.4953 34.0446C24.4953 34.0479 24.4953 34.0511 24.4953 34.0544C24.4953 34.0577 24.4953 34.061 24.4953 34.0643C24.4953 34.0675 24.4953 34.0708 24.4953 34.0741C24.4953 34.0774 24.4953 34.0807 24.4953 34.0839C24.4953 34.0872 24.4953 34.0905 24.4953 34.0938C24.4953 34.0971 24.4953 34.1004 24.4953 34.1036C24.4953 34.1069 24.4953 34.1102 24.4953 34.1135C24.4953 34.1168 24.4953 34.1201 24.4953 34.1233C24.4953 34.1266 24.4953 34.1299 24.4953 34.1332C24.4953 34.1365 24.4953 34.1398 24.4953 34.143C24.4953 34.1463 24.4953 34.1496 24.4953 34.1529C24.4953 34.1562 24.4953 34.1595 24.4953 34.1628C24.4953 34.1661 24.4953 34.1693 24.4953 34.1726C24.4953 34.1759 24.4953 34.1792 24.4953 34.1825C24.4953 34.1858 24.4953 34.1891 24.4953 34.1924C24.4953 34.1956 24.4953 34.1989 24.4953 34.2022C24.4953 34.2055 24.4953 34.2088 24.4953 34.2121C24.4953 34.2154 24.4953 34.2187 24.4953 34.222C24.4953 34.2253 24.4953 34.2286 24.4953 34.2318C24.4953 34.2351 24.4953 34.2384 24.4953 34.2417C24.4953 34.245 24.4953 34.2483 24.4953 34.2516C24.4953 34.2549 24.4953 34.2582 24.4953 34.2615C24.4953 34.2648 24.4953 34.2681 24.4953 34.2714C24.4953 34.2747 24.4953 34.278 24.4953 34.2813C24.4953 34.2845 24.4953 34.2878 24.4953 34.2911C24.4953 34.2944 24.4953 34.2977 24.4953 34.301C24.4953 34.3043 24.4953 34.3076 24.4953 34.3109C24.4953 34.3142 24.4953 34.3175 24.4953 34.3208C24.4953 34.3241 24.4953 34.3274 24.4953 34.3307C24.4953 34.334 24.4953 34.3373 24.4953 34.3406C24.4953 34.3439 24.4953 34.3472 24.4953 34.3505C24.4953 34.3538 24.4953 34.3571 24.4953 34.3604C24.4953 34.3637 24.4953 34.367 24.4953 34.3703C24.4953 34.3736 24.4953 34.3769 24.4953 34.3802C24.4953 34.3835 24.4953 34.3868 24.4953 34.3901C24.4953 34.3934 24.4953 34.3967 24.4953 34.4C24.4953 34.4033 24.4953 34.4066 24.4953 34.4099C24.4953 34.4132 24.4953 34.4166 24.4953 34.4199C24.4953 34.4232 24.4953 34.4265 24.4953 34.4298C24.4953 34.4331 24.4953 34.4364 24.4953 34.4397C24.4953 34.443 24.4953 34.4463 24.4953 34.4496C24.4953 34.4529 24.4953 34.4562 24.4953 34.4595C24.4953 34.4628 24.4953 34.4661 24.4953 34.4695C24.4953 34.4728 24.4953 34.4761 24.4953 34.4794C24.4953 34.4827 24.4953 34.486 24.4953 34.4893C24.4953 34.4926 24.4953 34.4959 24.4953 34.4992C24.4953 34.5025 24.4953 34.5059 24.4953 34.5092C24.4953 34.5125 24.4953 34.5158 24.4953 34.5191C24.4953 34.5224 24.4953 34.5257 24.4953 34.529C24.4953 34.5324 24.4953 34.5357 24.4953 34.539C24.4953 34.5423 24.4953 34.5456 24.4953 34.5489C24.4953 34.5522 24.4953 34.5555 24.4953 34.5589C24.4953 34.5622 24.4953 34.5655 24.4953 34.5688C24.4953 34.5721 24.4953 34.5754 24.4953 34.5787C24.4953 34.5821 24.4953 34.5854 24.4953 34.5887C24.4953 34.592 24.4953 34.5953 24.4953 34.5986C24.4953 34.602 24.4953 34.6053 24.4953 34.6086C24.4953 34.6119 24.4953 34.6152 24.4953 34.6185C24.4953 34.6219 24.4953 34.6252 24.4953 34.6285C24.4953 34.6318 24.4953 34.6351 24.4953 34.6385C24.4953 34.6418 24.4953 34.6451 24.4953 34.6484C24.4953 34.6517 24.4953 34.6551 24.4953 34.6584C24.4953 34.6617 24.4953 34.665 24.4953 34.6683C24.4953 34.6717 24.4953 34.675 24.4953 34.6783C24.4953 34.6816 24.4953 34.685 24.4953 34.6883C24.4953 34.6916 24.4953 34.6949 24.4953 34.6982C24.4953 34.7016 24.4953 34.7049 24.4953 34.7082C24.4953 34.7115 24.4953 34.7149 24.4953 34.7182C24.4953 34.7215 24.4953 34.7248 24.4953 34.7282C24.4953 34.7315 24.4953 34.7348 24.4953 34.7381C24.4953 34.7415 24.4953 34.7448 24.4953 34.7481C24.4953 34.7514 24.4953 34.7548 24.4953 34.7581C24.4953 34.7614 24.4953 34.7648 24.4953 34.7681C24.4953 34.7714 24.4953 34.7747 24.4953 34.7781H25.4953C25.4953 34.7747 25.4953 34.7714 25.4953 34.7681C25.4953 34.7648 25.4953 34.7614 25.4953 34.7581C25.4953 34.7548 25.4953 34.7514 25.4953 34.7481C25.4953 34.7448 25.4953 34.7415 25.4953 34.7381C25.4953 34.7348 25.4953 34.7315 25.4953 34.7282C25.4953 34.7248 25.4953 34.7215 25.4953 34.7182C25.4953 34.7149 25.4953 34.7115 25.4953 34.7082C25.4953 34.7049 25.4953 34.7016 25.4953 34.6982C25.4953 34.6949 25.4953 34.6916 25.4953 34.6883C25.4953 34.685 25.4953 34.6816 25.4953 34.6783C25.4953 34.675 25.4953 34.6717 25.4953 34.6683C25.4953 34.665 25.4953 34.6617 25.4953 34.6584C25.4953 34.6551 25.4953 34.6517 25.4953 34.6484C25.4953 34.6451 25.4953 34.6418 25.4953 34.6385C25.4953 34.6351 25.4953 34.6318 25.4953 34.6285C25.4953 34.6252 25.4953 34.6219 25.4953 34.6185C25.4953 34.6152 25.4953 34.6119 25.4953 34.6086C25.4953 34.6053 25.4953 34.602 25.4953 34.5986C25.4953 34.5953 25.4953 34.592 25.4953 34.5887C25.4953 34.5854 25.4953 34.5821 25.4953 34.5787C25.4953 34.5754 25.4953 34.5721 25.4953 34.5688C25.4953 34.5655 25.4953 34.5622 25.4953 34.5589C25.4953 34.5555 25.4953 34.5522 25.4953 34.5489C25.4953 34.5456 25.4953 34.5423 25.4953 34.539C25.4953 34.5357 25.4953 34.5324 25.4953 34.529C25.4953 34.5257 25.4953 34.5224 25.4953 34.5191C25.4953 34.5158 25.4953 34.5125 25.4953 34.5092C25.4953 34.5059 25.4953 34.5025 25.4953 34.4992C25.4953 34.4959 25.4953 34.4926 25.4953 34.4893C25.4953 34.486 25.4953 34.4827 25.4953 34.4794C25.4953 34.4761 25.4953 34.4728 25.4953 34.4695C25.4953 34.4661 25.4953 34.4628 25.4953 34.4595C25.4953 34.4562 25.4953 34.4529 25.4953 34.4496C25.4953 34.4463 25.4953 34.443 25.4953 34.4397C25.4953 34.4364 25.4953 34.4331 25.4953 34.4298C25.4953 34.4265 25.4953 34.4232 25.4953 34.4199C25.4953 34.4166 25.4953 34.4132 25.4953 34.4099C25.4953 34.4066 25.4953 34.4033 25.4953 34.4C25.4953 34.3967 25.4953 34.3934 25.4953 34.3901C25.4953 34.3868 25.4953 34.3835 25.4953 34.3802C25.4953 34.3769 25.4953 34.3736 25.4953 34.3703C25.4953 34.367 25.4953 34.3637 25.4953 34.3604C25.4953 34.3571 25.4953 34.3538 25.4953 34.3505C25.4953 34.3472 25.4953 34.3439 25.4953 34.3406C25.4953 34.3373 25.4953 34.334 25.4953 34.3307C25.4953 34.3274 25.4953 34.3241 25.4953 34.3208C25.4953 34.3175 25.4953 34.3142 25.4953 34.3109C25.4953 34.3076 25.4953 34.3043 25.4953 34.301C25.4953 34.2977 25.4953 34.2944 25.4953 34.2911C25.4953 34.2878 25.4953 34.2845 25.4953 34.2813C25.4953 34.278 25.4953 34.2747 25.4953 34.2714C25.4953 34.2681 25.4953 34.2648 25.4953 34.2615C25.4953 34.2582 25.4953 34.2549 25.4953 34.2516C25.4953 34.2483 25.4953 34.245 25.4953 34.2417C25.4953 34.2384 25.4953 34.2351 25.4953 34.2318C25.4953 34.2286 25.4953 34.2253 25.4953 34.222C25.4953 34.2187 25.4953 34.2154 25.4953 34.2121C25.4953 34.2088 25.4953 34.2055 25.4953 34.2022C25.4953 34.1989 25.4953 34.1956 25.4953 34.1924C25.4953 34.1891 25.4953 34.1858 25.4953 34.1825C25.4953 34.1792 25.4953 34.1759 25.4953 34.1726C25.4953 34.1693 25.4953 34.1661 25.4953 34.1628C25.4953 34.1595 25.4953 34.1562 25.4953 34.1529C25.4953 34.1496 25.4953 34.1463 25.4953 34.143C25.4953 34.1398 25.4953 34.1365 25.4953 34.1332C25.4953 34.1299 25.4953 34.1266 25.4953 34.1233C25.4953 34.1201 25.4953 34.1168 25.4953 34.1135C25.4953 34.1102 25.4953 34.1069 25.4953 34.1036C25.4953 34.1004 25.4953 34.0971 25.4953 34.0938C25.4953 34.0905 25.4953 34.0872 25.4953 34.0839C25.4953 34.0807 25.4953 34.0774 25.4953 34.0741C25.4953 34.0708 25.4953 34.0675 25.4953 34.0643C25.4953 34.061 25.4953 34.0577 25.4953 34.0544C25.4953 34.0511 25.4953 34.0479 25.4953 34.0446C25.4953 34.0413 25.4953 34.038 25.4953 34.0347C25.4953 34.0315 25.4953 34.0282 25.4953 34.0249C25.4953 34.0216 25.4953 34.0184 25.4953 34.0151C25.4953 34.0118 25.4953 34.0085 25.4953 34.0053C25.4953 34.002 25.4953 33.9987 25.4953 33.9954C25.4953 33.9922 25.4953 33.9889 25.4953 33.9856C25.4953 33.9823 25.4953 33.9791 25.4953 33.9758C25.4953 33.9725 25.4953 33.9692 25.4953 33.966C25.4953 33.9627 25.4953 33.9594 25.4953 33.9561C25.4953 33.9529 25.4953 33.9496 25.4953 33.9463C25.4953 33.9431 25.4953 33.9398 25.4953 33.9365C25.4953 33.9332 25.4953 33.93 25.4953 33.9267C25.4953 33.9234 25.4953 33.9202 25.4953 33.9169C25.4953 33.9136 25.4953 33.9104 25.4953 33.9071C25.4953 33.9038 25.4953 33.9006 25.4953 33.8973C25.4953 33.894 25.4953 33.8907 25.4953 33.8875C25.4953 33.8842 25.4953 33.8809 25.4953 33.8777C25.4953 33.8744 25.4953 33.8711 25.4953 33.8679C25.4953 33.8646 25.4953 33.8614 25.4953 33.8581C25.4953 33.8548 25.4953 33.8516 25.4953 33.8483C25.4953 33.845 25.4953 33.8418 25.4953 33.8385C25.4953 33.8352 25.4953 33.832 25.4953 33.8287C25.4953 33.8254 25.4953 33.8222 25.4953 33.8189C25.4953 33.8157 25.4953 33.8124 25.4953 33.8091C25.4953 33.8059 25.4953 33.8026 25.4953 33.7994C25.4953 33.7961 25.4953 33.7928 25.4953 33.7896C25.4953 33.7863 25.4953 33.7831 25.4953 33.7798C25.4953 33.7765 25.4953 33.7733 25.4953 33.77C25.4953 33.7668 25.4953 33.7635 25.4953 33.7602C25.4953 33.757 25.4953 33.7537 25.4953 33.7505C25.4953 33.7472 25.4953 33.744 25.4953 33.7407C25.4953 33.7375 25.4953 33.7342 25.4953 33.7309C25.4953 33.7277 25.4953 33.7244 25.4953 33.7212C25.4953 33.7179 25.4953 33.7147 25.4953 33.7114C25.4953 33.7082 25.4953 33.7049 25.4953 33.7017C25.4953 33.6984 25.4953 33.6951 25.4953 33.6919C25.4953 33.6886 25.4953 33.6854 25.4953 33.6821C25.4953 33.6789 25.4953 33.6756 25.4953 33.6724C25.4953 33.6691 25.4953 33.6659 25.4953 33.6626C25.4953 33.6594 25.4953 33.6561 25.4953 33.6529C25.4953 33.6496 25.4953 33.6464 25.4953 33.6431C25.4953 33.6399 25.4953 33.6366 25.4953 33.6334C25.4953 33.6301 25.4953 33.6269 25.4953 33.6236C25.4953 33.6204 25.4953 33.6172 25.4953 33.6139C25.4953 33.6107 25.4953 33.6074 25.4953 33.6042C25.4953 33.6009 25.4953 33.5977 25.4953 33.5944C25.4953 33.5912 25.4953 33.5879 25.4953 33.5847C25.4953 33.5815 25.4953 33.5782 25.4953 33.575C25.4953 33.5717 25.4953 33.5685 25.4953 33.5652C25.4953 33.562 25.4953 33.5588 25.4953 33.5555C25.4953 33.5523 25.4953 33.549 25.4953 33.5458C25.4953 33.5425 25.4953 33.5393 25.4953 33.5361C25.4953 33.5328 25.4953 33.5296 25.4953 33.5263C25.4953 33.5231 25.4953 33.5199 25.4953 33.5166C25.4953 33.5134 25.4953 33.5102 25.4953 33.5069C25.4953 33.5037 25.4953 33.5004 25.4953 33.4972C25.4953 33.494 25.4953 33.4907 25.4953 33.4875C25.4953 33.4843 25.4953 33.481 25.4953 33.4778C25.4953 33.4745 25.4953 33.4713 25.4953 33.4681C25.4953 33.4648 25.4953 33.4616 25.4953 33.4584C25.4953 33.4551 25.4953 33.4519 25.4953 33.4487C25.4953 33.4454 25.4953 33.4422 25.4953 33.439C25.4953 33.4357 25.4953 33.4325 25.4953 33.4293C25.4953 33.426 25.4953 33.4228 25.4953 33.4196C25.4953 33.4163 25.4953 33.4131 25.4953 33.4099C25.4953 33.4067 25.4953 33.4034 25.4953 33.4002C25.4953 33.397 25.4953 33.3937 25.4953 33.3905C25.4953 33.3873 25.4953 33.3841 25.4953 33.3808C25.4953 33.3776 25.4953 33.3744 25.4953 33.3711C25.4953 33.3679 25.4953 33.3647 25.4953 33.3615C25.4953 33.3582 25.4953 33.355 25.4953 33.3518C25.4953 33.3486 25.4953 33.3453 25.4953 33.3421C25.4953 33.3389 25.4953 33.3357 25.4953 33.3324C25.4953 33.3292 25.4953 33.326 25.4953 33.3228C25.4953 33.3195 25.4953 33.3163 25.4953 33.3131C25.4953 33.3099 25.4953 33.3067 25.4953 33.3034C25.4953 33.3002 25.4953 33.297 25.4953 33.2938C25.4953 33.2905 25.4953 33.2873 25.4953 33.2841C25.4953 33.2809 25.4953 33.2777 25.4953 33.2744C25.4953 33.2712 25.4953 33.268 25.4953 33.2648C25.4953 33.2616 25.4953 33.2584 25.4953 33.2551C25.4953 33.2519 25.4953 33.2487 25.4953 33.2455C25.4953 33.2423 25.4953 33.239 25.4953 33.2358C25.4953 33.2326 25.4953 33.2294 25.4953 33.2262C25.4953 33.223 25.4953 33.2198 25.4953 33.2165C25.4953 33.2133 25.4953 33.2101 25.4953 33.2069C25.4953 33.2037 25.4953 33.2005 25.4953 33.1973C25.4953 33.194 25.4953 33.1908 25.4953 33.1876C25.4953 33.1844 25.4953 33.1812 25.4953 33.178C25.4953 33.1748 25.4953 33.1716 25.4953 33.1684C25.4953 33.1651 25.4953 33.1619 25.4953 33.1587C25.4953 33.1555 25.4953 33.1523 25.4953 33.1491C25.4953 33.1459 25.4953 33.1427 25.4953 33.1395C25.4953 33.1363 25.4953 33.1331 25.4953 33.1298C25.4953 33.1266 25.4953 33.1234 25.4953 33.1202C25.4953 33.117 25.4953 33.1138 25.4953 33.1106C25.4953 33.1074 25.4953 33.1042 25.4953 33.101C25.4953 33.0978 25.4953 33.0946 25.4953 33.0914C25.4953 33.0882 25.4953 33.085 25.4953 33.0818C25.4953 33.0786 25.4953 33.0754 25.4953 33.0722C25.4953 33.069 25.4953 33.0658 25.4953 33.0626C25.4953 33.0593 25.4953 33.0561 25.4953 33.0529C25.4953 33.0497 25.4953 33.0465 25.4953 33.0433C25.4953 33.0401 25.4953 33.0369 25.4953 33.0337C25.4953 33.0305 25.4953 33.0273 25.4953 33.0242C25.4953 33.021 25.4953 33.0178 25.4953 33.0146C25.4953 33.0114 25.4953 33.0082 25.4953 33.005C25.4953 33.0018 25.4953 32.9986 25.4953 32.9954C25.4953 32.9922 25.4953 32.989 25.4953 32.9858C25.4953 32.9826 25.4953 32.9794 25.4953 32.9762C25.4953 32.973 25.4953 32.9698 25.4953 32.9666C25.4953 32.9634 25.4953 32.9602 25.4953 32.957C25.4953 32.9539 25.4953 32.9507 25.4953 32.9475C25.4953 32.9443 25.4953 32.9411 25.4953 32.9379C25.4953 32.9347 25.4953 32.9315 25.4953 32.9283C25.4953 32.9251 25.4953 32.9219 25.4953 32.9188C25.4953 32.9156 25.4953 32.9124 25.4953 32.9092C25.4953 32.906 25.4953 32.9028 25.4953 32.8996C25.4953 32.8964 25.4953 32.8933 25.4953 32.8901C25.4953 32.8869 25.4953 32.8837 25.4953 32.8805C25.4953 32.8773 25.4953 32.8741 25.4953 32.8709C25.4953 32.8678 25.4953 32.8646 25.4953 32.8614C25.4953 32.8582 25.4953 32.855 25.4953 32.8518C25.4953 32.8487 25.4953 32.8455 25.4953 32.8423C25.4953 32.8391 25.4953 32.8359 25.4953 32.8327C25.4953 32.8296 25.4953 32.8264 25.4953 32.8232C25.4953 32.82 25.4953 32.8168 25.4953 32.8137C25.4953 32.8105 25.4953 32.8073 25.4953 32.8041C25.4953 32.8009 25.4953 32.7978 25.4953 32.7946C25.4953 32.7914 25.4953 32.7882 25.4953 32.7851C25.4953 32.7819 25.4953 32.7787 25.4953 32.7755C25.4953 32.7723 25.4953 32.7692 25.4953 32.766C25.4953 32.7628 25.4953 32.7596 25.4953 32.7565C25.4953 32.7533 25.4953 32.7501 25.4953 32.7469C25.4953 32.7438 25.4953 32.7406 25.4953 32.7374C25.4953 32.7342 25.4953 32.7311 25.4953 32.7279C25.4953 32.7247 25.4953 32.7216 25.4953 32.7184C25.4953 32.7152 25.4953 32.712 25.4953 32.7089C25.4953 32.7057 25.4953 32.7025 25.4953 32.6994C25.4953 32.6962 25.4953 32.693 25.4953 32.6899C25.4953 32.6867 25.4953 32.6835 25.4953 32.6803C25.4953 32.6772 25.4953 32.674 25.4953 32.6708C25.4953 32.6677 25.4953 32.6645 25.4953 32.6613C25.4953 32.6582 25.4953 32.655 25.4953 32.6518C25.4953 32.6487 25.4953 32.6455 25.4953 32.6424C25.4953 32.6392 25.4953 32.636 25.4953 32.6329C25.4953 32.6297 25.4953 32.6265 25.4953 32.6234C25.4953 32.6202 25.4953 32.617 25.4953 32.6139C25.4953 32.6107 25.4953 32.6076 25.4953 32.6044C25.4953 32.6012 25.4953 32.5981 25.4953 32.5949C25.4953 32.5918 25.4953 32.5886 25.4953 32.5854C25.4953 32.5823 25.4953 32.5791 25.4953 32.576C25.4953 32.5728 25.4953 32.5696 25.4953 32.5665C25.4953 32.5633 25.4953 32.5602 25.4953 32.557C25.4953 32.5539 25.4953 32.5507 25.4953 32.5475C25.4953 32.5444 25.4953 32.5412 25.4953 32.5381C25.4953 32.5349 25.4953 32.5318 25.4953 32.5286C25.4953 32.5255 25.4953 32.5223 25.4953 32.5191C25.4953 32.516 25.4953 32.5128 25.4953 32.5097C25.4953 32.5065 25.4953 32.5034 25.4953 32.5002C25.4953 32.4971 25.4953 32.4939 25.4953 32.4908C25.4953 32.4876 25.4953 32.4845 25.4953 32.4813C25.4953 32.4782 25.4953 32.475 25.4953 32.4719C25.4953 32.4687 25.4953 32.4656 25.4953 32.4624C25.4953 32.4593 25.4953 32.4561 25.4953 32.453C25.4953 32.4498 25.4953 32.4467 25.4953 32.4435C25.4953 32.4404 25.4953 32.4373 25.4953 32.4341C25.4953 32.431 25.4953 32.4278 25.4953 32.4247C25.4953 32.4215 25.4953 32.4184 25.4953 32.4152C25.4953 32.4121 25.4953 32.409 25.4953 32.4058C25.4953 32.4027 25.4953 32.3995 25.4953 32.3964C25.4953 32.3932 25.4953 32.3901 25.4953 32.387C25.4953 32.3838 25.4953 32.3807 25.4953 32.3775C25.4953 32.3744 25.4953 32.3713 25.4953 32.3681C25.4953 32.365 25.4953 32.3618 25.4953 32.3587C25.4953 32.3556 25.4953 32.3524 25.4953 32.3493C25.4953 32.3462 25.4953 32.343 25.4953 32.3399C25.4953 32.3367 25.4953 32.3336 25.4953 32.3305C25.4953 32.3273 25.4953 32.3242 25.4953 32.3211C25.4953 32.3179 25.4953 32.3148 25.4953 32.3117C25.4953 32.3085 25.4953 32.3054 25.4953 32.3023C25.4953 32.2991 25.4953 32.296 25.4953 32.2929C25.4953 32.2897 25.4953 32.2866 25.4953 32.2835C25.4953 32.2803 25.4953 32.2772 25.4953 32.2741C25.4953 32.2709 25.4953 32.2678 25.4953 32.2647C25.4953 32.2616 25.4953 32.2584 25.4953 32.2553C25.4953 32.2522 25.4953 32.249 25.4953 32.2459C25.4953 32.2428 25.4953 32.2397 25.4953 32.2365C25.4953 32.2334 25.4953 32.2303 25.4953 32.2272C25.4953 32.224 25.4953 32.2209 25.4953 32.2178C25.4953 32.2147 25.4953 32.2115 25.4953 32.2084C25.4953 32.2053 25.4953 32.2022 25.4953 32.199C25.4953 32.1959 25.4953 32.1928 25.4953 32.1897C25.4953 32.1865 25.4953 32.1834 25.4953 32.1803C25.4953 32.1772 25.4953 32.1741 25.4953 32.1709C25.4953 32.1678 25.4953 32.1647 25.4953 32.1616C25.4953 32.1585 25.4953 32.1553 25.4953 32.1522C25.4953 32.1491 25.4953 32.146 25.4953 32.1429C25.4953 32.1398 25.4953 32.1366 25.4953 32.1335C25.4953 32.1304 25.4953 32.1273 25.4953 32.1242C25.4953 32.1211 25.4953 32.1179 25.4953 32.1148C25.4953 32.1117 25.4953 32.1086 25.4953 32.1055C25.4953 32.1024 25.4953 32.0993 25.4953 32.0961C25.4953 32.093 25.4953 32.0899 25.4953 32.0868C25.4953 32.0837 25.4953 32.0806 25.4953 32.0775C25.4953 32.0744 25.4953 32.0712 25.4953 32.0681C25.4953 32.065 25.4953 32.0619 25.4953 32.0588C25.4953 32.0557 25.4953 32.0526 25.4953 32.0495C25.4953 32.0464 25.4953 32.0433 25.4953 32.0402C25.4953 32.037 25.4953 32.0339 25.4953 32.0308C25.4953 32.0277 25.4953 32.0246 25.4953 32.0215C25.4953 32.0184 25.4953 32.0153 25.4953 32.0122C25.4953 32.0091 25.4953 32.006 25.4953 32.0029C25.4953 31.9998 25.4953 31.9967 25.4953 31.9936C25.4953 31.9905 25.4953 31.9874 25.4953 31.9843C25.4953 31.9812 25.4953 31.9781 25.4953 31.975C25.4953 31.9719 25.4953 31.9688 25.4953 31.9657C25.4953 31.9626 25.4953 31.9595 25.4953 31.9564C25.4953 31.9533 25.4953 31.9502 25.4953 31.9471C25.4953 31.944 25.4953 31.9409 25.4953 31.9378C25.4953 31.9347 25.4953 31.9316 25.4953 31.9285C25.4953 31.9254 25.4953 31.9223 25.4953 31.9192C25.4953 31.9161 25.4953 31.913 25.4953 31.9099C25.4953 31.9068 25.4953 31.9037 25.4953 31.9006C25.4953 31.8975 25.4953 31.8944 25.4953 31.8914C25.4953 31.8883 25.4953 31.8852 25.4953 31.8821C25.4953 31.879 25.4953 31.8759 25.4953 31.8728C25.4953 31.8697 25.4953 31.8666 25.4953 31.8635C25.4953 31.8604 25.4953 31.8574 25.4953 31.8543C25.4953 31.8512 25.4953 31.8481 25.4953 31.845C25.4953 31.8419 25.4953 31.8388 25.4953 31.8357C25.4953 31.8327 25.4953 31.8296 25.4953 31.8265C25.4953 31.8234 25.4953 31.8203 25.4953 31.8172C25.4953 31.8141 25.4953 31.8111 25.4953 31.808C25.4953 31.8049 25.4953 31.8018 25.4953 31.7987C25.4953 31.7956 25.4953 31.7926 25.4953 31.7895C25.4953 31.7864 25.4953 31.7833 25.4953 31.7802C25.4953 31.7772 25.4953 31.7741 25.4953 31.771C25.4953 31.7679 25.4953 31.7648 25.4953 31.7618C25.4953 31.7587 25.4953 31.7556 25.4953 31.7525C25.4953 31.7494 25.4953 31.7464 25.4953 31.7433C25.4953 31.7402 25.4953 31.7371 25.4953 31.7341C25.4953 31.731 25.4953 31.7279 25.4953 31.7248C25.4953 31.7218 25.4953 31.7187 25.4953 31.7156C25.4953 31.7125 25.4953 31.7095 25.4953 31.7064C25.4953 31.7033 25.4953 31.7002 25.4953 31.6972C25.4953 31.6941 25.4953 31.691 25.4953 31.6879C25.4953 31.6849 25.4953 31.6818 25.4953 31.6787C25.4953 31.6757 25.4953 31.6726 25.4953 31.6695C25.4953 31.6665 25.4953 31.6634 25.4953 31.6603C25.4953 31.6572 25.4953 31.6542 25.4953 31.6511C25.4953 31.648 25.4953 31.645 25.4953 31.6419C25.4953 31.6388 25.4953 31.6358 25.4953 31.6327C25.4953 31.6296 25.4953 31.6266 25.4953 31.6235C25.4953 31.6205 25.4953 31.6174 25.4953 31.6143C25.4953 31.6113 25.4953 31.6082 25.4953 31.6051C25.4953 31.6021 25.4953 31.599 25.4953 31.5959C25.4953 31.5929 25.4953 31.5898 25.4953 31.5868C25.4953 31.5837 25.4953 31.5806 25.4953 31.5776C25.4953 31.5745 25.4953 31.5715 25.4953 31.5684C25.4953 31.5653 25.4953 31.5623 25.4953 31.5592C25.4953 31.5562 25.4953 31.5531 25.4953 31.5501C25.4953 31.547 25.4953 31.5439 25.4953 31.5409C25.4953 31.5378 25.4953 31.5348 25.4953 31.5317C25.4953 31.5287 25.4953 31.5256 25.4953 31.5226C25.4953 31.5195 25.4953 31.5165 25.4953 31.5134C25.4953 31.5104 25.4953 31.5073 25.4953 31.5042C25.4953 31.5012 25.4953 31.4981 25.4953 31.4951C25.4953 31.492 25.4953 31.489 25.4953 31.4859C25.4953 31.4829 25.4953 31.4798 25.4953 31.4768C25.4953 31.4737 25.4953 31.4707 25.4953 31.4676C25.4953 31.4646 25.4953 31.4616 25.4953 31.4585C25.4953 31.4555 25.4953 31.4524 25.4953 31.4494C25.4953 31.4463 25.4953 31.4433 25.4953 31.4402C25.4953 31.4372 25.4953 31.4341 25.4953 31.4311C25.4953 31.4281 25.4953 31.425 25.4953 31.422C25.4953 31.4189 25.4953 31.4159 25.4953 31.4128C25.4953 31.4098 25.4953 31.4068 25.4953 31.4037C25.4953 31.4007 25.4953 31.3976 25.4953 31.3946C25.4953 31.3916 25.4953 31.3885 25.4953 31.3855C25.4953 31.3824 25.4953 31.3794 25.4953 31.3764C25.4953 31.3733 25.4953 31.3703 25.4953 31.3673C25.4953 31.3642 25.4953 31.3612 25.4953 31.3581C25.4953 31.3551 25.4953 31.3521 25.4953 31.349C25.4953 31.346 25.4953 31.343 25.4953 31.3399C25.4953 31.3369 25.4953 31.3339 25.4953 31.3308C25.4953 31.3278 25.4953 31.3248 25.4953 31.3217C25.4953 31.3187 25.4953 31.3157 25.4953 31.3126C25.4953 31.3096 25.4953 31.3066 25.4953 31.3035C25.4953 31.3005 25.4953 31.2975 25.4953 31.2945C25.4953 31.2914 25.4953 31.2884 25.4953 31.2854C25.4953 31.2823 25.4953 31.2793 25.4953 31.2763C25.4953 31.2733 25.4953 31.2702 25.4953 31.2672C25.4953 31.2642 25.4953 31.2612 25.4953 31.2581C25.4953 31.2551 25.4953 31.2521 25.4953 31.2491C25.4953 31.246 25.4953 31.243 25.4953 31.24C25.4953 31.237 25.4953 31.234 25.4953 31.2309C25.4953 31.2279 25.4953 31.2249 25.4953 31.2219C25.4953 31.2188 25.4953 31.2158 25.4953 31.2128C25.4953 31.2098 25.4953 31.2068 25.4953 31.2038C25.4953 31.2007 25.4953 31.1977 25.4953 31.1947C25.4953 31.1917 25.4953 31.1887 25.4953 31.1856C25.4953 31.1826 25.4953 31.1796 25.4953 31.1766C25.4953 31.1736 25.4953 31.1706 25.4953 31.1676C25.4953 31.1645 25.4953 31.1615 25.4953 31.1585C25.4953 31.1555 25.4953 31.1525 25.4953 31.1495C25.4953 31.1465 25.4953 31.1434 25.4953 31.1404C25.4953 31.1374 25.4953 31.1344 25.4953 31.1314C25.4953 31.1284 25.4953 31.1254 25.4953 31.1224C25.4953 31.1194 25.4953 31.1164 25.4953 31.1133C25.4953 31.1103 25.4953 31.1073 25.4953 31.1043C25.4953 31.1013 25.4953 31.0983 25.4953 31.0953C25.4953 31.0923 25.4953 31.0893 25.4953 31.0863C25.4953 31.0833 25.4953 31.0803 25.4953 31.0773C25.4953 31.0743 25.4953 31.0713 25.4953 31.0683C25.4953 31.0653 25.4953 31.0623 25.4953 31.0593C25.4953 31.0562 25.4953 31.0532 25.4953 31.0502C25.4953 31.0472 25.4953 31.0442 25.4953 31.0412C25.4953 31.0382 25.4953 31.0352 25.4953 31.0322C25.4953 31.0292 25.4953 31.0262 25.4953 31.0233C25.4953 31.0203 25.4953 31.0173 25.4953 31.0143C25.4953 31.0113 25.4953 31.0083 25.4953 31.0053C25.4953 31.0023 25.4953 30.9993 25.4953 30.9963C25.4953 30.9933 25.4953 30.9903 25.4953 30.9873C25.4953 30.9843 25.4953 30.9813 25.4953 30.9783C25.4953 30.9753 25.4953 30.9723 25.4953 30.9693C25.4953 30.9664 25.4953 30.9634 25.4953 30.9604C25.4953 30.9574 25.4953 30.9544 25.4953 30.9514C25.4953 30.9484 25.4953 30.9454 25.4953 30.9424C25.4953 30.9394 25.4953 30.9365 25.4953 30.9335C25.4953 30.9305 25.4953 30.9275 25.4953 30.9245C25.4953 30.9215 25.4953 30.9185 25.4953 30.9156C25.4953 30.9126 25.4953 30.9096 25.4953 30.9066C25.4953 30.9036 25.4953 30.9006 25.4953 30.8976C25.4953 30.8947 25.4953 30.8917 25.4953 30.8887C25.4953 30.8857 25.4953 30.8827 25.4953 30.8798C25.4953 30.8768 25.4953 30.8738 25.4953 30.8708C25.4953 30.8678 25.4953 30.8649 25.4953 30.8619C25.4953 30.8589 25.4953 30.8559 25.4953 30.8529C25.4953 30.85 25.4953 30.847 25.4953 30.844C25.4953 30.841 25.4953 30.8381 25.4953 30.8351C25.4953 30.8321 25.4953 30.8291 25.4953 30.8262C25.4953 30.8232 25.4953 30.8202 25.4953 30.8172C25.4953 30.8143 25.4953 30.8113 25.4953 30.8083C25.4953 30.8053 25.4953 30.8024 25.4953 30.7994C25.4953 30.7964 25.4953 30.7935 25.4953 30.7905C25.4953 30.7875 25.4953 30.7845 25.4953 30.7816C25.4953 30.7786 25.4953 30.7756 25.4953 30.7727C25.4953 30.7697 25.4953 30.7667 25.4953 30.7638C25.4953 30.7608 25.4953 30.7578 25.4953 30.7549C25.4953 30.7519 25.4953 30.7489 25.4953 30.746C25.4953 30.743 25.4953 30.74 25.4953 30.7371C25.4953 30.7341 25.4953 30.7311 25.4953 30.7282C25.4953 30.7252 25.4953 30.7223 25.4953 30.7193C25.4953 30.7163 25.4953 30.7134 25.4953 30.7104C25.4953 30.7074 25.4953 30.7045 25.4953 30.7015C25.4953 30.6986 25.4953 30.6956 25.4953 30.6927C25.4953 30.6897 25.4953 30.6867 25.4953 30.6838C25.4953 30.6808 25.4953 30.6779 25.4953 30.6749C25.4953 30.672 25.4953 30.669 25.4953 30.666C25.4953 30.6631 25.4953 30.6601 25.4953 30.6572C25.4953 30.6542 25.4953 30.6513 25.4953 30.6483C25.4953 30.6454 25.4953 30.6424 25.4953 30.6395C25.4953 30.6365 25.4953 30.6336 25.4953 30.6306C25.4953 30.6277 25.4953 30.6247 25.4953 30.6218C25.4953 30.6188 25.4953 30.6159 25.4953 30.6129C25.4953 30.61 25.4953 30.607 25.4953 30.6041C25.4953 30.6011 25.4953 30.5982 25.4953 30.5952C25.4953 30.5923 25.4953 30.5893 25.4953 30.5864C25.4953 30.5834 25.4953 30.5805 25.4953 30.5775C25.4953 30.5746 25.4953 30.5717 25.4953 30.5687C25.4953 30.5658 25.4953 30.5628 25.4953 30.5599C25.4953 30.5569 25.4953 30.554 25.4953 30.5511C25.4953 30.5481 25.4953 30.5452 25.4953 30.5422C25.4953 30.5393 25.4953 30.5364 25.4953 30.5334C25.4953 30.5305 25.4953 30.5275 25.4953 30.5246C25.4953 30.5217 25.4953 30.5187 25.4953 30.5158C25.4953 30.5129 25.4953 30.5099 25.4953 30.507C25.4953 30.504 25.4953 30.5011 25.4953 30.4982C25.4953 30.4952 25.4953 30.4923 25.4953 30.4894C25.4953 30.4864 25.4953 30.4835 25.4953 30.4806C25.4953 30.4776 25.4953 30.4747 25.4953 30.4718C25.4953 30.4689 25.4953 30.4659 25.4953 30.463C25.4953 30.4601 25.4953 30.4571 25.4953 30.4542C25.4953 30.4513 25.4953 30.4483 25.4953 30.4454C25.4953 30.4425 25.4953 30.4396 25.4953 30.4366C25.4953 30.4337 25.4953 30.4308 25.4953 30.4279C25.4953 30.4249 25.4953 30.422 25.4953 30.4191C25.4953 30.4162 25.4953 30.4132 25.4953 30.4103C25.4953 30.4074 25.4953 30.4045 25.4953 30.4015C25.4953 30.3986 25.4953 30.3957 25.4953 30.3928C25.4953 30.3899 25.4953 30.3869 25.4953 30.384C25.4953 30.3811 25.4953 30.3782 25.4953 30.3753C25.4953 30.3723 25.4953 30.3694 25.4953 30.3665C25.4953 30.3636 25.4953 30.3607 25.4953 30.3577C25.4953 30.3548 25.4953 30.3519 25.4953 30.349C25.4953 30.3461 25.4953 30.3432 25.4953 30.3403C25.4953 30.3373 25.4953 30.3344 25.4953 30.3315C25.4953 30.3286 25.4953 30.3257 25.4953 30.3228C25.4953 30.3199 25.4953 30.317 25.4953 30.314C25.4953 30.3111 25.4953 30.3082 25.4953 30.3053C25.4953 30.3024 25.4953 30.2995 25.4953 30.2966C25.4953 30.2937 25.4953 30.2908 25.4953 30.2879C25.4953 30.285 25.4953 30.282 25.4953 30.2791C25.4953 30.2762 25.4953 30.2733 25.4953 30.2704C25.4953 30.2675 25.4953 30.2646 25.4953 30.2617C25.4953 30.2588 25.4953 30.2559 25.4953 30.253C25.4953 30.2501 25.4953 30.2472 25.4953 30.2443C25.4953 30.2414 25.4953 30.2385 25.4953 30.2356C25.4953 30.2327 25.4953 30.2298 25.4953 30.2269C25.4953 30.224 25.4953 30.2211 25.4953 30.2182C25.4953 30.2153 25.4953 30.2124 25.4953 30.2095C25.4953 30.2066 25.4953 30.2037 25.4953 30.2008C25.4953 30.1979 25.4953 30.195 25.4953 30.1921C25.4953 30.1892 25.4953 30.1863 25.4953 30.1834C25.4953 30.1805 25.4953 30.1776 25.4953 30.1747C25.4953 30.1719 25.4953 30.169 25.4953 30.1661C25.4953 30.1632 25.4953 30.1603 25.4953 30.1574C25.4953 30.1545 25.4953 30.1516 25.4953 30.1487C25.4953 30.1458 25.4953 30.143 25.4953 30.1401C25.4953 30.1372 25.4953 30.1343 25.4953 30.1314C25.4953 30.1285 25.4953 30.1256 25.4953 30.1227C25.4953 30.1199 25.4953 30.117 25.4953 30.1141C25.4953 30.1112 25.4953 30.1083 25.4953 30.1054C25.4953 30.1025 25.4953 30.0997 25.4953 30.0968C25.4953 30.0939 25.4953 30.091 25.4953 30.0881C25.4953 30.0853 25.4953 30.0824 25.4953 30.0795C25.4953 30.0766 25.4953 30.0737 25.4953 30.0709C25.4953 30.068 25.4953 30.0651 25.4953 30.0622C25.4953 30.0593 25.4953 30.0565 25.4953 30.0536C25.4953 30.0507 25.4953 30.0478 25.4953 30.045C25.4953 30.0421 25.4953 30.0392 25.4953 30.0363C25.4953 30.0335 25.4953 30.0306 25.4953 30.0277C25.4953 30.0248 25.4953 30.022 25.4953 30.0191C25.4953 30.0162 25.4953 30.0134 25.4953 30.0105C25.4953 30.0076 25.4953 30.0047 25.4953 30.0019C25.4953 29.999 25.4953 29.9961 25.4953 29.9933C25.4953 29.9904 25.4953 29.9875 25.4953 29.9847H24.4953ZM17.9746 23.2859C21.5642 23.2859 24.4953 26.2725 24.4953 29.9847H25.4953C25.4953 25.7439 22.1399 22.2859 17.9746 22.2859V23.2859ZM2.09271 29.9847C2.09271 26.2725 5.02387 23.2859 8.6135 23.2859V22.2859C4.44819 22.2859 1.09271 25.7439 1.09271 29.9847H2.09271ZM33.8564 31.1999V34.7999H34.8564V31.1999H33.8564ZM34.3564 34.2999H28.5057V35.2999H34.3564V34.2999ZM28.5057 25.6999C31.449 25.6999 33.8564 28.1504 33.8564 31.1999H34.8564C34.8564 27.6221 32.0249 24.6999 28.5057 24.6999V25.6999ZM27.3356 19.9C25.0386 19.9 23.1551 17.9867 23.1551 15.6H22.1551C22.1551 18.5151 24.4627 20.9 27.3356 20.9V19.9ZM31.5161 15.6C31.5161 17.9867 29.6326 19.9 27.3356 19.9V20.9C30.2085 20.9 32.5161 18.5151 32.5161 15.6H31.5161ZM27.3356 11.3C29.6326 11.3 31.5161 13.2132 31.5161 15.6H32.5161C32.5161 12.6848 30.2085 10.3 27.3356 10.3V11.3ZM27.3356 10.3C24.4627 10.3 22.1551 12.6848 22.1551 15.6H23.1551C23.1551 13.2132 25.0386 11.3 27.3356 11.3V10.3Z" fill="black"/>
</svg>
