<svg width="394" height="454" viewBox="0 0 394 454" fill="none" xmlns="http://www.w3.org/2000/svg">
    <path d="M186.749 449.748C192.615 455.417 201.918 455.417 207.784 449.748L337.499 324.376L337.608 324.268C364.759 297.485 383.184 263.488 390.489 226.512C397.796 189.532 393.639 151.298 378.565 116.625C363.493 81.9591 338.205 52.448 305.951 31.7324C273.701 11.0201 235.894 3.8147e-06 197.267 3.8147e-06C158.639 3.8147e-06 120.832 11.0201 88.5826 31.7324C56.3281 52.448 31.0399 81.9591 15.9685 116.625C0.894425 151.298 -3.26268 189.532 4.04383 226.512C11.3496 263.488 29.7739 297.486 56.9242 324.268L186.749 449.748Z" fill="#F8F8F8"/>
</svg>
