<svg width="44" height="58" viewBox="0 0 44 58" fill="none" xmlns="http://www.w3.org/2000/svg">
<path d="M30.085 48.1249L22 43.3674L13.915 48.1249L16.06 38.9399L8.93752 32.78L18.315 31.9825L22 23.375L25.685 31.9825L35.0625 32.78L27.94 38.9399L30.085 48.1249ZM44 0H3.2534e-05V5.49999L13.365 15.51C8.70215 17.4998 4.86961 21.0391 2.51555 25.5291C0.161498 30.0191 -0.569596 35.1844 0.445914 40.1513C1.46142 45.1183 4.16121 49.5821 8.08869 52.7878C12.0162 55.9935 16.9303 57.7445 22 57.7445C27.0697 57.7445 31.9838 55.9935 35.9113 52.7878C39.8388 49.5821 42.5386 45.1183 43.5541 40.1513C44.5696 35.1844 43.8385 30.0191 41.4845 25.5291C39.1304 21.0391 35.2979 17.4998 30.635 15.51L44 5.49999V0ZM38.5 35.75C38.5014 38.8747 37.6156 41.9356 35.9455 44.5766C34.2754 47.2176 31.8896 49.3301 29.0659 50.6682C26.2422 52.0063 23.0965 52.5151 19.9949 52.1354C16.8933 51.7557 13.9633 50.503 11.5458 48.5232C9.12826 46.5434 7.32262 43.9178 6.33893 40.952C5.35525 37.9861 5.23398 34.8018 5.98922 31.7697C6.74446 28.7376 8.34517 25.9823 10.6051 23.8243C12.865 21.6664 15.6913 20.1945 18.755 19.58C20.896 19.1398 23.1041 19.1398 25.245 19.58C28.982 20.3296 32.3443 22.3498 34.7606 25.2975C37.1769 28.2452 38.4982 31.9385 38.5 35.75ZM23.7325 13.75H20.2675L9.26752 5.49999H34.9525L23.7325 13.75Z" fill="#FF5F00"/>
</svg>
