<svg width="56" height="45" viewBox="0 0 56 45" fill="none" xmlns="http://www.w3.org/2000/svg">
<path d="M3.99998 20H27.9999V23.9999H3.99998V20ZM0 10H19.9999V14H0V10Z" fill="#FF5F00"/>
<path d="M55.8382 21.2119L49.8382 7.21197C49.6842 6.85213 49.428 6.54543 49.1012 6.32997C48.7745 6.11451 48.3916 5.99976 48.0002 5.99997H42.0003V1.99999C42.0003 1.46956 41.7895 0.960855 41.4145 0.585784C41.0394 0.210713 40.5307 0 40.0003 0H8.00042V3.99998H38.0003V29.1119C37.0889 29.641 36.2914 30.3454 35.6536 31.1843C35.0158 32.0233 34.5504 32.9802 34.2843 33.9998H21.7163C21.2296 32.1145 20.0719 30.4715 18.4603 29.3787C16.8488 28.2858 14.894 27.8183 12.9624 28.0636C11.0308 28.309 9.25494 29.2504 7.96777 30.7114C6.6806 32.1724 5.97046 34.0527 5.97046 35.9998C5.97046 37.947 6.6806 39.8273 7.96777 41.2883C9.25494 42.7493 11.0308 43.6907 12.9624 43.936C14.894 44.1814 16.8488 43.7138 18.4603 42.621C20.0719 41.5282 21.2296 39.8851 21.7163 37.9998H34.2843C34.7194 39.7163 35.7143 41.2387 37.1118 42.3261C38.5093 43.4136 40.2295 44.004 42.0003 44.004C43.771 44.004 45.4912 43.4136 46.8887 42.3261C48.2862 41.2387 49.2811 39.7163 49.7162 37.9998H54.0002C54.5306 37.9998 55.0393 37.7891 55.4144 37.414C55.7895 37.039 56.0002 36.5303 56.0002 35.9998V21.9999C56.0003 21.729 55.9452 21.4608 55.8382 21.2119ZM14.0004 39.9998C13.2093 39.9998 12.4359 39.7652 11.7781 39.3257C11.1203 38.8862 10.6076 38.2615 10.3049 37.5306C10.0021 36.7997 9.92292 35.9954 10.0773 35.2195C10.2316 34.4436 10.6126 33.7308 11.172 33.1714C11.7314 32.612 12.4441 32.231 13.22 32.0767C13.9959 31.9224 14.8002 32.0016 15.5311 32.3043C16.262 32.6071 16.8867 33.1198 17.3262 33.7776C17.7658 34.4354 18.0004 35.2087 18.0004 35.9998C17.9993 37.0604 17.5775 38.0772 16.8276 38.8271C16.0777 39.577 15.0609 39.9988 14.0004 39.9998ZM42.0003 9.99995H46.6802L50.9682 19.9999H42.0003V9.99995ZM42.0003 39.9998C41.2091 39.9998 40.4358 39.7652 39.778 39.3257C39.1202 38.8862 38.6075 38.2615 38.3048 37.5306C38.002 36.7997 37.9228 35.9954 38.0771 35.2195C38.2315 34.4436 38.6124 33.7308 39.1718 33.1714C39.7312 32.612 40.444 32.231 41.2199 32.0767C41.9958 31.9224 42.8001 32.0016 43.531 32.3043C44.2619 32.6071 44.8866 33.1198 45.3261 33.7776C45.7656 34.4354 46.0002 35.2087 46.0002 35.9998C45.9992 37.0604 45.5774 38.0772 44.8275 38.8271C44.0776 39.577 43.0608 39.9988 42.0003 39.9998ZM52.0002 33.9998H49.7162C49.2757 32.2867 48.2791 30.7682 46.8827 29.6824C45.4863 28.5965 43.7691 28.0048 42.0003 27.9999V23.9999H52.0002V33.9998Z" fill="#FF5F00"/>
</svg>
